<?xml version="1.0" encoding="UTF-8"?>
<!DOCTYPE svg PUBLIC "-//W3C//DTD SVG 1.1//EN" "http://www.w3.org/Graphics/SVG/1.1/DTD/svg11.dtd">

<svg x="0px" height="1280.000000px" xmlns:xlink="http://www.w3.org/1999/xlink" y="0px" xmlns="http://www.w3.org/2000/svg" width="1920.000000px" version="1.1" viewBox="0 0 1920.000000 1280.000000">
    <g ID="e52_3F21DBE0-AB62-4149-98D0-E1DC6CBA3C4D" element_type="e52" dclass="DiaElement">
        <path ID="e52_35A013D3-3E75-460A-89E2-2F06E0820E16" d=" M 870.430099 204.013295 C 832.562137 216.094422 790.535204 261.639862 809.966527 300.896424 C 835.811540 353.106963 900.031863 353.285881 951.895449 350.003498 C 998.391768 347.060550 1042.758539 313.643061 1031.396473 260.588093 C 1025.261501 231.927811 990.669638 205.845950 961.448391 200.284446 C 943.680989 196.900063 927.734388 197.911698 909.851832 197.364911 C 896.749083 196.971960 882.920351 198.734387 870.430099 204.013295" dclass="DKDrawableShape" fill-opacity="1.000000" fill="#9BD3DB"></path>
        <path ID="e52_839D4B36-933E-49B6-8C24-C29F434F6CAD" d=" M 1031.396476 260.588093 C 1028.611037 247.577262 1019.930944 235.121573 1008.582236 224.849689 C 1010.227801 233.024727 1010.730150 241.111139 1004.997384 250.184108 C 966.465188 326.667269 868.722788 336.974269 805.303546 284.439335 C 805.820912 289.975753 807.294578 295.493777 809.968199 300.894752 C 835.813209 353.105292 900.033532 353.284214 951.897121 350.001824 C 998.393437 347.060549 1042.760208 313.643060 1031.396476 260.588093 Z M 1031.396476 260.588093" dclass="DKDrawableShape" fill-opacity="1.000000" fill="#70C3CF"></path>
        <path ID="contour_79622E0B-ADC9-4567-B62F-8632D08C2729" d=" M 861.626507 193.644424 C 823.758546 205.723882 781.729952 251.269320 801.162936 290.525883 C 827.006274 342.736422 891.228272 342.911999 943.091858 339.632954 C 989.588173 336.690010 1033.954943 303.270848 1022.594550 250.215879 C 1016.457905 221.557267 981.867717 195.473734 952.644800 189.913905 C 934.877399 186.529519 918.930797 187.541156 901.048240 186.996042 C 887.943822 186.601416 874.116758 188.365514 861.626507 193.644424" dclass="DKDrawableShape" stroke="#2C1F2E" stroke-opacity="1.000000" stroke-width="1.000000" fill="#000000" stroke-linecap="butt" fill-opacity="0.000000" stroke-linejoin="miter"></path>
        <Hotspots>
            <StickySpot id_sticky_spot="F0C6ED63-F0B1-4BA0-9A30-9E7E06647014_32774" relative_location="{-0.333097,0.347329}" position_kind="2"></StickySpot>
            <StickySpot id_sticky_spot="F0C6ED63-F0B1-4BA0-9A30-9E7E06647014_32773" relative_location="{0.287057,0.365838}" position_kind="2"></StickySpot>
            <StickySpot id_sticky_spot="F0C6ED63-F0B1-4BA0-9A30-9E7E06647014_32768" relative_location="{-0.500000,0.000000}" position_kind="0"></StickySpot>
            <StickySpot id_sticky_spot="F0C6ED63-F0B1-4BA0-9A30-9E7E06647014_32769" relative_location="{0.500000,0.000000}" position_kind="0"></StickySpot>
            <StickySpot id_sticky_spot="F0C6ED63-F0B1-4BA0-9A30-9E7E06647014_32770" relative_location="{0.000000,0.500000}" position_kind="0"></StickySpot>
            <StickySpot id_sticky_spot="F0C6ED63-F0B1-4BA0-9A30-9E7E06647014_32771" relative_location="{0.000000,-0.500000}" position_kind="0"></StickySpot>
            <StickySpot id_sticky_spot="F0C6ED63-F0B1-4BA0-9A30-9E7E06647014_32772" relative_location="{0.407641,0.224790}" position_kind="1"></StickySpot>
        </Hotspots>
        <g>
            <text style="font-family:Helvetica; font-size:36.000000; fill: #000000;" transform="matrix(1.000000,0.000000,-0.000000,1.000000,910.324253,274.620117)" text-anchor="middle">Root</text>
        </g>
    </g>
    <g ID="e52_D9C28EEE-7C89-49F5-815A-CB44DF96D9F0" element_type="e52" dclass="DiaElement">
        <path ID="e52_A2FF6EF3-B243-4BE8-9EFF-643FE7464F34" d=" M 430.430099 522.013295 C 392.562137 534.094422 350.535204 579.639862 369.966527 618.896424 C 395.811540 671.106963 460.031863 671.285881 511.895449 668.003498 C 558.391768 665.060550 602.758539 631.643061 591.396473 578.588093 C 585.261501 549.927811 550.669638 523.845950 521.448391 518.284446 C 503.680989 514.900063 487.734388 515.911698 469.851832 515.364911 C 456.749083 514.971960 442.920351 516.734387 430.430099 522.013295" dclass="DKDrawableShape" fill-opacity="1.000000" fill="#9BD3DB"></path>
        <path ID="e52_A1EF1338-6FA1-4A79-A590-65C57B462EC0" d=" M 591.396476 578.588093 C 588.611037 565.577262 579.930944 553.121573 568.582236 542.849689 C 570.227801 551.024727 570.730150 559.111139 564.997384 568.184108 C 526.465188 644.667269 428.722788 654.974269 365.303546 602.439335 C 365.820912 607.975753 367.294578 613.493777 369.968199 618.894752 C 395.813209 671.105292 460.033532 671.284214 511.897121 668.001824 C 558.393437 665.060549 602.760208 631.643060 591.396476 578.588093 Z M 591.396476 578.588093" dclass="DKDrawableShape" fill-opacity="1.000000" fill="#70C3CF"></path>
        <path ID="contour_6A9D1D87-7572-46F1-B755-C20AF0120834" d=" M 421.626507 511.644424 C 383.758546 523.723882 341.729952 569.269320 361.162936 608.525883 C 387.006274 660.736422 451.228272 660.911999 503.091858 657.632954 C 549.588173 654.690010 593.954943 621.270848 582.594550 568.215879 C 576.457905 539.557267 541.867717 513.473734 512.644800 507.913905 C 494.877399 504.529519 478.930797 505.541156 461.048240 504.996042 C 447.943822 504.601416 434.116758 506.365514 421.626507 511.644424" dclass="DKDrawableShape" stroke="#2C1F2E" stroke-opacity="1.000000" stroke-width="1.000000" fill="#000000" stroke-linecap="butt" fill-opacity="0.000000" stroke-linejoin="miter"></path>
        <Hotspots>
            <StickySpot id_sticky_spot="986C1BAA-6F60-49F3-A3B0-1AF5C3E477F9_32773" relative_location="{0.003382,0.436682}" position_kind="2"></StickySpot>
            <StickySpot id_sticky_spot="986C1BAA-6F60-49F3-A3B0-1AF5C3E477F9_32772" relative_location="{0.340662,-0.355217}" position_kind="2"></StickySpot>
            <StickySpot id_sticky_spot="986C1BAA-6F60-49F3-A3B0-1AF5C3E477F9_32768" relative_location="{-0.500000,0.000000}" position_kind="0"></StickySpot>
            <StickySpot id_sticky_spot="986C1BAA-6F60-49F3-A3B0-1AF5C3E477F9_32769" relative_location="{0.500000,0.000000}" position_kind="0"></StickySpot>
            <StickySpot id_sticky_spot="986C1BAA-6F60-49F3-A3B0-1AF5C3E477F9_32770" relative_location="{0.000000,0.500000}" position_kind="0"></StickySpot>
            <StickySpot id_sticky_spot="986C1BAA-6F60-49F3-A3B0-1AF5C3E477F9_32771" relative_location="{0.000000,-0.500000}" position_kind="0"></StickySpot>
        </Hotspots>
        <g>
            <text style="font-family:Helvetica; font-size:36.000000; fill: #000000;" transform="matrix(1.000000,0.000000,-0.000000,1.000000,470.324253,571.120117)" text-anchor="middle">Task
</text>
            <text style="font-family:Helvetica; font-size:36.000000; fill: #000000;" transform="matrix(1.000000,0.000000,-0.000000,1.000000,470.324253,614.120117)" text-anchor="middle">Form</text>
        </g>
    </g>
    <g ID="e52_2A4D9143-5901-49F9-96D6-D07B6BBC86F9" element_type="e52" dclass="DiaElement">
        <path ID="e52_7C08F381-B362-4839-8BDB-96729E57CBCD" d=" M 1230.430099 522.013295 C 1192.562137 534.094422 1150.535204 579.639862 1169.966527 618.896424 C 1195.811540 671.106963 1260.031863 671.285881 1311.895449 668.003498 C 1358.391768 665.060550 1402.758539 631.643061 1391.396473 578.588093 C 1385.261501 549.927811 1350.669638 523.845950 1321.448391 518.284446 C 1303.680989 514.900063 1287.734388 515.911698 1269.851832 515.364911 C 1256.749083 514.971960 1242.920351 516.734387 1230.430099 522.013295" dclass="DKDrawableShape" fill-opacity="1.000000" fill="#9BD3DB"></path>
        <path ID="e52_61BDE820-B73A-4BF1-B036-6D74277473BD" d=" M 1391.396476 578.588093 C 1388.611037 565.577262 1379.930944 553.121573 1368.582236 542.849689 C 1370.227801 551.024727 1370.730150 559.111139 1364.997384 568.184108 C 1326.465188 644.667269 1228.722788 654.974269 1165.303546 602.439335 C 1165.820912 607.975753 1167.294578 613.493777 1169.968199 618.894752 C 1195.813209 671.105292 1260.033532 671.284214 1311.897121 668.001824 C 1358.393437 665.060549 1402.760208 631.643060 1391.396476 578.588093 Z M 1391.396476 578.588093" dclass="DKDrawableShape" fill-opacity="1.000000" fill="#70C3CF"></path>
        <path ID="contour_10F77773-B3F4-4071-8078-1EEB5D5E778A" d=" M 1221.626507 511.644424 C 1183.758546 523.723882 1141.729952 569.269320 1161.162936 608.525883 C 1187.006274 660.736422 1251.228272 660.911999 1303.091858 657.632954 C 1349.588173 654.690010 1393.954943 621.270848 1382.594550 568.215879 C 1376.457905 539.557267 1341.867717 513.473734 1312.644800 507.913905 C 1294.877399 504.529519 1278.930797 505.541156 1261.048240 504.996042 C 1247.943822 504.601416 1234.116758 506.365514 1221.626507 511.644424" dclass="DKDrawableShape" stroke="#2C1F2E" stroke-opacity="1.000000" stroke-width="1.000000" fill="#000000" stroke-linecap="butt" fill-opacity="0.000000" stroke-linejoin="miter"></path>
        <Hotspots>
            <StickySpot id_sticky_spot="F26C97BF-5090-48B1-8739-22AF202D0E19_32774" relative_location="{0.193501,0.414112}" position_kind="2"></StickySpot>
            <StickySpot id_sticky_spot="F26C97BF-5090-48B1-8739-22AF202D0E19_32773" relative_location="{-0.191208,0.416101}" position_kind="2"></StickySpot>
            <StickySpot id_sticky_spot="F26C97BF-5090-48B1-8739-22AF202D0E19_32772" relative_location="{-0.312976,-0.398871}" position_kind="2"></StickySpot>
            <StickySpot id_sticky_spot="F26C97BF-5090-48B1-8739-22AF202D0E19_32768" relative_location="{-0.500000,0.000000}" position_kind="0"></StickySpot>
            <StickySpot id_sticky_spot="F26C97BF-5090-48B1-8739-22AF202D0E19_32769" relative_location="{0.500000,0.000000}" position_kind="0"></StickySpot>
            <StickySpot id_sticky_spot="F26C97BF-5090-48B1-8739-22AF202D0E19_32770" relative_location="{0.000000,0.500000}" position_kind="0"></StickySpot>
            <StickySpot id_sticky_spot="F26C97BF-5090-48B1-8739-22AF202D0E19_32771" relative_location="{0.000000,-0.500000}" position_kind="0"></StickySpot>
        </Hotspots>
        <g>
            <text style="font-family:Helvetica; font-size:36.000000; fill: #000000;" transform="matrix(1.000000,0.000000,-0.000000,1.000000,1270.324253,571.120117)" text-anchor="middle">Tasks </text>
            <text style="font-family:Helvetica; font-size:36.000000; fill: #000000;" transform="matrix(1.000000,0.000000,-0.000000,1.000000,1270.324253,614.120117)" text-anchor="middle">Container</text>
        </g>
    </g>
    <g ID="e52_D700D6F3-998A-456D-A9C2-5B39A82C07D9" element_type="e52" dclass="DiaElement">
        <path ID="e52_11D84155-DF5F-4E94-ACD1-BBBCFF0131CC" d=" M 990.430099 884.013295 C 952.562137 896.094422 910.535204 941.639862 929.966527 980.896424 C 955.811540 1033.106963 1020.031863 1033.285881 1071.895449 1030.003498 C 1118.391768 1027.060550 1162.758539 993.643061 1151.396473 940.588093 C 1145.261501 911.927811 1110.669638 885.845950 1081.448391 880.284446 C 1063.680989 876.900063 1047.734388 877.911698 1029.851832 877.364911 C 1016.749083 876.971960 1002.920351 878.734387 990.430099 884.013295" dclass="DKDrawableShape" fill-opacity="1.000000" fill="#9BD3DB"></path>
        <path ID="e52_2AF888D1-4432-499F-AC86-29C7B66AA9E6" d=" M 1151.396476 940.588093 C 1148.611037 927.577262 1139.930944 915.121573 1128.582236 904.849689 C 1130.227801 913.024727 1130.730150 921.111139 1124.997384 930.184108 C 1086.465188 1006.667269 988.722788 1016.974269 925.303546 964.439335 C 925.820912 969.975753 927.294578 975.493777 929.968199 980.894752 C 955.813209 1033.105292 1020.033532 1033.284214 1071.897121 1030.001824 C 1118.393437 1027.060549 1162.760208 993.643060 1151.396476 940.588093 Z M 1151.396476 940.588093" dclass="DKDrawableShape" fill-opacity="1.000000" fill="#70C3CF"></path>
        <path ID="contour_0900FA1C-6FCF-417A-ABF2-A00E3AEB9E8A" d=" M 981.626507 873.644424 C 943.758546 885.723882 901.729952 931.269320 921.162936 970.525883 C 947.006274 1022.736422 1011.228272 1022.911999 1063.091858 1019.632954 C 1109.588173 1016.690010 1153.954943 983.270848 1142.594550 930.215879 C 1136.457905 901.557267 1101.867717 875.473734 1072.644800 869.913905 C 1054.877399 866.529519 1038.930797 867.541156 1021.048240 866.996042 C 1007.943822 866.601416 994.116758 868.365514 981.626507 873.644424" dclass="DKDrawableShape" stroke="#2C1F2E" stroke-opacity="1.000000" stroke-width="1.000000" fill="#000000" stroke-linecap="butt" fill-opacity="0.000000" stroke-linejoin="miter"></path>
        <Hotspots>
            <StickySpot id_sticky_spot="D82CD0A5-EFC4-42CC-B922-5821E4B115C8_32772" relative_location="{0.211889,-0.461107}" position_kind="2"></StickySpot>
            <StickySpot id_sticky_spot="D82CD0A5-EFC4-42CC-B922-5821E4B115C8_32768" relative_location="{-0.500000,0.000000}" position_kind="0"></StickySpot>
            <StickySpot id_sticky_spot="D82CD0A5-EFC4-42CC-B922-5821E4B115C8_32769" relative_location="{0.500000,0.000000}" position_kind="0"></StickySpot>
            <StickySpot id_sticky_spot="D82CD0A5-EFC4-42CC-B922-5821E4B115C8_32770" relative_location="{0.000000,0.500000}" position_kind="0"></StickySpot>
            <StickySpot id_sticky_spot="D82CD0A5-EFC4-42CC-B922-5821E4B115C8_32771" relative_location="{0.000000,-0.500000}" position_kind="0"></StickySpot>
        </Hotspots>
        <g>
            <text style="font-family:Helvetica; font-size:36.000000; fill: #000000;" transform="matrix(1.000000,0.000000,-0.000000,1.000000,1030.324253,954.620117)" text-anchor="middle">Task1</text>
        </g>
    </g>
    <g ID="e52_3275A574-B273-4196-B90C-1C625426B449" element_type="e52" dclass="DiaElement">
        <path ID="e52_E79836E9-4C09-4A6C-92F1-BA72633D3ACF" d=" M 1470.430099 878.013295 C 1432.562137 890.094422 1390.535204 935.639862 1409.966527 974.896424 C 1435.811540 1027.106963 1500.031863 1027.285881 1551.895449 1024.003498 C 1598.391768 1021.060550 1642.758539 987.643061 1631.396473 934.588093 C 1625.261501 905.927811 1590.669638 879.845950 1561.448391 874.284446 C 1543.680989 870.900063 1527.734388 871.911698 1509.851832 871.364911 C 1496.749083 870.971960 1482.920351 872.734387 1470.430099 878.013295" dclass="DKDrawableShape" fill-opacity="1.000000" fill="#9BD3DB"></path>
        <path ID="e52_C41CE15D-E260-47FF-B33B-627FE4F97A16" d=" M 1631.396476 934.588093 C 1628.611037 921.577262 1619.930944 909.121573 1608.582236 898.849689 C 1610.227801 907.024727 1610.730150 915.111139 1604.997384 924.184108 C 1566.465188 1000.667269 1468.722788 1010.974269 1405.303546 958.439335 C 1405.820912 963.975753 1407.294578 969.493777 1409.968199 974.894752 C 1435.813209 1027.105292 1500.033532 1027.284214 1551.897121 1024.001824 C 1598.393437 1021.060549 1642.760208 987.643060 1631.396476 934.588093 Z M 1631.396476 934.588093" dclass="DKDrawableShape" fill-opacity="1.000000" fill="#70C3CF"></path>
        <path ID="contour_23004E05-C932-4CDE-879E-20CADF1E8132" d=" M 1461.626507 867.644424 C 1423.758546 879.723882 1381.729952 925.269320 1401.162936 964.525883 C 1427.006274 1016.736422 1491.228272 1016.911999 1543.091858 1013.632954 C 1589.588173 1010.690010 1633.954943 977.270848 1622.594550 924.215879 C 1616.457905 895.557267 1581.867717 869.473734 1552.644800 863.913905 C 1534.877399 860.529519 1518.930797 861.541156 1501.048240 860.996042 C 1487.943822 860.601416 1474.116758 862.365514 1461.626507 867.644424" dclass="DKDrawableShape" stroke="#2C1F2E" stroke-opacity="1.000000" stroke-width="1.000000" fill="#000000" stroke-linecap="butt" fill-opacity="0.000000" stroke-linejoin="miter"></path>
        <Hotspots>
            <StickySpot id_sticky_spot="4C82C2A6-5587-41CB-9DCD-BBB606E57B25_32772" relative_location="{-0.216621,-0.463592}" position_kind="2"></StickySpot>
            <StickySpot id_sticky_spot="4C82C2A6-5587-41CB-9DCD-BBB606E57B25_32768" relative_location="{-0.500000,0.000000}" position_kind="0"></StickySpot>
            <StickySpot id_sticky_spot="4C82C2A6-5587-41CB-9DCD-BBB606E57B25_32769" relative_location="{0.500000,0.000000}" position_kind="0"></StickySpot>
            <StickySpot id_sticky_spot="4C82C2A6-5587-41CB-9DCD-BBB606E57B25_32770" relative_location="{0.000000,0.500000}" position_kind="0"></StickySpot>
            <StickySpot id_sticky_spot="4C82C2A6-5587-41CB-9DCD-BBB606E57B25_32771" relative_location="{0.000000,-0.500000}" position_kind="0"></StickySpot>
        </Hotspots>
        <g>
            <text style="font-family:Helvetica; font-size:36.000000; fill: #000000;" transform="matrix(1.000000,0.000000,-0.000000,1.000000,1510.324253,948.620117)" text-anchor="middle">Task2</text>
        </g>
    </g>
    <defs></defs>
    <g dclass="DiaConnector">
        <g enabled="1" ID="2190E2CD-B3AC-4E52-A3C9-88395A105223" dclass="DiaConnectorStyle">
            <path d=" M 982.740967 329.136169 L 1163.095426 488.449235" dclass="DiaConnectorStylizedPath" fill="none" stroke="#2C1F2E" stroke-opacity="1.000000" stroke-width="1.000000" stroke-linecap="round" stroke-linejoin="round"></path>
            <g dclass="DiaConnectorArrow">
                <path d=" M 1159.605531 499.087341 C 1160.355984 496.789257 1165.971107 492.479799 1168.098117 489.921676 C 1170.974719 486.461601 1173.476914 482.992608 1176.120421 479.571134 C 1178.478591 486.037231 1182.491192 494.130140 1186.827240 499.398559 C 1192.290483 506.033014 1195.703240 513.939441 1202.217997 519.658186 C 1199.469348 517.444152 1184.099833 507.495720 1179.122808 505.571331 C 1172.982857 503.196787 1165.121380 501.777138 1159.605531 499.087341 Z M 1159.605531 499.087341" dclass="DKDrawableShape" fill-opacity="1.000000" fill="#9BD3DB"></path>
                <path d=" M 1173.343277 503.666173 C 1175.346279 504.256131 1177.312802 504.869599 1179.122719 505.569455 C 1184.099744 507.493845 1200.331446 520.799904 1202.217909 519.656310 C 1204.108206 518.514305 1192.290394 506.031137 1186.827151 499.396683 C 1182.491103 494.128264 1178.478502 486.035355 1176.120332 479.569258 C 1175.420673 480.473966 1174.731356 481.378822 1174.045159 482.290027 C 1174.777574 489.689549 1174.934949 497.109672 1173.343277 503.666173 Z M 1173.343277 503.666173" dclass="DKDrawableShape" fill-opacity="1.000000" fill="#70C3CF"></path>
                <path d=" M 1153.845519 500.663794 C 1154.596864 498.364700 1160.765422 492.879343 1162.892344 490.319343 C 1165.767162 486.861288 1170.565754 480.421084 1173.210153 476.998600 C 1175.569303 483.465563 1178.323741 493.352348 1182.660858 498.623508 C 1188.123120 505.257097 1191.555011 512.772325 1198.072622 518.491791 C 1195.319246 516.277178 1178.894951 507.892378 1173.917926 505.967989 C 1167.777172 503.596330 1159.359407 503.351859 1153.845519 500.663794 Z M 1153.845519 500.663794" dclass="DKDrawableShape" stroke="#2C1F2E" stroke-opacity="1.000000" stroke-width="1.000000" fill="#000000" stroke-linecap="round" fill-opacity="0.000000" stroke-linejoin="round"></path>
            </g>
        </g>
        <ConnectorEndPoint id_target_sticky_spot="F0C6ED63-F0B1-4BA0-9A30-9E7E06647014_32773" is_start="1" location="{982.740966796875, 329.13616943359375}"></ConnectorEndPoint>
        <ConnectorEndPoint id_target_sticky_spot="F26C97BF-5090-48B1-8739-22AF202D0E19_32772" is_start="0" location="{1200.569091796875, 521.55096435546875}"></ConnectorEndPoint>
        <text style="font-family:Helvetica; font-size:14.000000; fill: #000000;">
            <textPath xlink:href="#20961E5E-08C1-4DE4-94AE-CE1D6905850F" baseline-shift="0.000000" startOffset="0.000000%"></textPath>
        </text>
    </g>
    <g dclass="DiaConnector">
        <g enabled="1" ID="83FBD445-58FF-48F4-A061-4445C7158BE7" dclass="DiaConnectorStyle">
            <path d=" M 1229.420898 655.390747 L 1112.559324 831.656919" dclass="DiaConnectorStylizedPath" fill="none" stroke="#2C1F2E" stroke-opacity="1.000000" stroke-width="1.000000" stroke-linecap="round" stroke-linejoin="round"></path>
            <g dclass="DiaConnectorArrow">
                <path d=" M 1101.542112 829.664506 C 1103.921617 830.091500 1108.962941 835.060009 1111.789485 836.814665 C 1115.612572 839.187630 1119.392957 841.188525 1123.145727 843.335927 C 1117.065761 846.561667 1109.602190 851.650011 1104.980745 856.669951 C 1099.161418 862.994383 1091.799988 867.462925 1087.032389 874.702821 C 1088.847016 871.675587 1096.585244 855.083025 1097.806262 849.888492 C 1099.313081 843.480142 1099.637137 835.498087 1101.542112 829.664506 Z M 1101.542112 829.664506" dclass="DKDrawableShape" fill-opacity="1.000000" fill="#9BD3DB"></path>
                <path d=" M 1098.897772 843.901740 C 1098.589130 845.966880 1098.252180 847.999126 1097.808108 849.888146 C 1096.587090 855.082679 1085.641867 872.991377 1087.034235 874.702475 C 1088.425556 876.417591 1099.163264 862.994037 1104.982591 856.669605 C 1109.604036 851.649665 1117.067607 846.561321 1123.147573 843.335581 C 1122.155172 842.767108 1121.164049 842.208900 1120.167066 841.654655 C 1112.938786 843.398595 1105.610950 844.575802 1098.897772 843.901740 Z M 1098.897772 843.901740" dclass="DKDrawableShape" fill-opacity="1.000000" fill="#70C3CF"></path>
                <path d=" M 1099.187836 824.176307 C 1101.568465 824.604045 1107.850673 829.958867 1110.679063 831.713177 C 1114.499903 834.084654 1121.539303 837.951120 1125.293195 840.099267 C 1119.212507 843.326097 1109.798957 847.415169 1105.174944 852.436545 C 1099.356339 858.759886 1092.385020 863.193534 1087.617098 870.436355 C 1089.431648 867.404360 1095.475944 849.982282 1096.696962 844.787749 C 1098.200813 838.379001 1097.284307 830.007707 1099.187836 824.176307 Z M 1099.187836 824.176307" dclass="DKDrawableShape" stroke="#2C1F2E" stroke-opacity="1.000000" stroke-width="1.000000" fill="#000000" stroke-linecap="round" fill-opacity="0.000000" stroke-linejoin="round"></path>
            </g>
        </g>
        <ConnectorEndPoint id_target_sticky_spot="F26C97BF-5090-48B1-8739-22AF202D0E19_32773" is_start="1" location="{1229.4208984375, 655.3907470703125}"></ConnectorEndPoint>
        <ConnectorEndPoint id_target_sticky_spot="D82CD0A5-EFC4-42CC-B922-5821E4B115C8_32772" is_start="0" location="{1084.9306640625, 873.33013916015625}"></ConnectorEndPoint>
        <text style="font-family:Helvetica; font-size:14.000000; fill: #000000;">
            <textPath xlink:href="#30F0CC97-5B62-4B14-A302-7EA118A4B934" baseline-shift="0.000000" startOffset="0.000000%"></textPath>
        </text>
    </g>
    <g dclass="DiaConnector">
        <g enabled="1" ID="3D2DFE8C-2EFD-42B2-B105-65E2DE49E2B9" dclass="DiaConnectorStyle">
            <path d=" M 1320.573730 655.063965 L 1435.449772 825.463374" dclass="DiaConnectorStylizedPath" fill="none" stroke="#2C1F2E" stroke-opacity="1.000000" stroke-width="1.000000" stroke-linecap="round" stroke-linejoin="round"></path>
            <g dclass="DiaConnectorArrow">
                <path d=" M 1429.397831 834.882645 C 1430.701857 832.846991 1437.219953 830.087379 1439.921703 828.146061 C 1443.575699 825.520176 1446.869552 822.791546 1450.288235 820.144430 C 1450.945304 826.995682 1452.794749 835.837384 1455.667248 842.026591 C 1459.287369 849.821316 1460.603107 858.331742 1465.471161 865.504478 C 1463.367310 862.670607 1450.992032 849.178173 1446.658547 846.064499 C 1441.312633 842.222799 1434.060438 838.872594 1429.397831 834.882645 Z M 1429.397831 834.882645" dclass="DKDrawableShape" fill-opacity="1.000000" fill="#9BD3DB"></path>
                <path d=" M 1441.543491 842.767713 C 1443.333881 843.842222 1445.083054 844.930317 1446.658933 846.062661 C 1450.992417 849.176335 1463.358192 866.135315 1465.471547 865.502641 C 1467.588215 864.872469 1459.287755 849.819478 1455.667634 842.024753 C 1452.795135 835.835546 1450.945689 826.993844 1450.288621 820.142593 C 1449.384010 820.842378 1448.489373 821.544906 1447.596159 822.254364 C 1446.445039 829.600403 1444.732164 836.821833 1441.543491 842.767713 Z M 1441.543491 842.767713" dclass="DKDrawableShape" fill-opacity="1.000000" fill="#70C3CF"></path>
                <path d=" M 1423.426494 834.960585 C 1424.731637 832.924177 1432.080984 829.165540 1434.783120 827.222384 C 1438.434882 824.598007 1444.698271 819.570813 1448.118071 816.922944 C 1448.775870 823.775279 1448.956625 834.036993 1451.829469 840.229123 C 1455.448859 848.022763 1456.881452 856.159360 1461.752086 863.333513 C 1459.643806 860.497892 1445.854566 848.253743 1441.521081 845.140069 C 1436.173664 841.300960 1428.087638 838.948365 1423.426494 834.960585 Z M 1423.426494 834.960585" dclass="DKDrawableShape" stroke="#2C1F2E" stroke-opacity="1.000000" stroke-width="1.000000" fill="#000000" stroke-linecap="round" fill-opacity="0.000000" stroke-linejoin="round"></path>
            </g>
        </g>
        <ConnectorEndPoint id_target_sticky_spot="F26C97BF-5090-48B1-8739-22AF202D0E19_32774" is_start="1" location="{1320.57373046875, 655.06396484375}"></ConnectorEndPoint>
        <ConnectorEndPoint id_target_sticky_spot="4C82C2A6-5587-41CB-9DCD-BBB606E57B25_32772" is_start="0" location="{1463.3994140625, 866.9219970703125}"></ConnectorEndPoint>
        <text style="font-family:Helvetica; font-size:14.000000; fill: #000000;">
            <textPath xlink:href="#6D59EA94-2B2A-4082-85AB-9E41E8BE9387" baseline-shift="0.000000" startOffset="0.000000%"></textPath>
        </text>
    </g>
    <g dclass="DiaConnector">
        <g enabled="1" ID="69FD9BB9-0269-4DA2-9B2B-45A18A857798" dclass="DiaConnectorStyle">
            <path d=" M 835.801758 326.096527 L 595.966385 499.432059" dclass="DiaConnectorStylizedPath" fill="none" stroke="#2C1F2E" stroke-opacity="1.000000" stroke-width="1.000000" stroke-linecap="round" stroke-linejoin="round"></path>
            <g dclass="DiaConnectorArrow">
                <path d=" M 586.354596 493.690792 C 588.431729 494.927678 591.402623 501.352227 593.431093 503.989172 C 596.174846 507.555511 599.009535 510.758546 601.766827 514.089004 C 594.940673 514.969350 586.164049 517.106406 580.071898 520.179392 C 572.399488 524.052006 563.936544 525.644826 556.926524 530.744407 C 559.690215 528.549179 572.771526 515.740096 575.742095 511.307290 C 579.407256 505.838830 582.518961 498.481147 586.354596 493.690792 Z M 586.354596 493.690792" dclass="DKDrawableShape" fill-opacity="1.000000" fill="#9BD3DB"></path>
                <path d=" M 578.870168 506.087351 C 577.854670 507.911859 576.824248 509.695616 575.743945 511.307615 C 572.773376 515.740422 556.227056 528.653154 556.928373 530.744733 C 557.627298 532.839704 572.401338 524.052332 580.073748 520.179718 C 586.165898 517.106732 594.942522 514.969675 601.768676 514.089330 C 601.039737 513.208042 600.308382 512.336813 599.570147 511.467232 C 592.190450 510.556502 584.916959 509.080249 578.870168 506.087351 Z M 578.870168 506.087351" dclass="DKDrawableShape" fill-opacity="1.000000" fill="#70C3CF"></path>
                <path d=" M 586.081791 487.725180 C 588.159714 488.963159 592.156233 496.185906 594.186553 498.823177 C 596.928726 502.387333 602.157680 508.483295 604.915762 511.814846 C 598.088548 512.695957 587.838202 513.211561 581.743142 516.284988 C 574.071793 520.156836 565.986292 521.854247 558.974941 526.956452 C 561.740236 524.756740 573.527775 510.575194 576.498344 506.142388 C 580.160866 500.672510 582.248277 492.514003 586.081791 487.725180 Z M 586.081791 487.725180" dclass="DKDrawableShape" stroke="#2C1F2E" stroke-opacity="1.000000" stroke-width="1.000000" fill="#000000" stroke-linecap="round" fill-opacity="0.000000" stroke-linejoin="round"></path>
            </g>
        </g>
        <ConnectorEndPoint id_target_sticky_spot="F0C6ED63-F0B1-4BA0-9A30-9E7E06647014_32774" is_start="1" location="{835.8017578125, 326.09652709960938}"></ConnectorEndPoint>
        <ConnectorEndPoint id_target_sticky_spot="986C1BAA-6F60-49F3-A3B0-1AF5C3E477F9_32772" is_start="0" location="{555.442138671875, 528.72003173828125}"></ConnectorEndPoint>
        <text style="font-family:Helvetica; font-size:14.000000; fill: #000000;">
            <textPath xlink:href="#00F069B2-2240-41C5-BF96-2D70B2DCA969" baseline-shift="0.000000" startOffset="0.000000%"></textPath>
        </text>
    </g>
    <g ID="e52_F314F98E-EF36-4CC0-B8DD-1E8C079E6296" element_type="e52" dclass="DiaElement">
        <path ID="e52_9F094A23-F8BE-4668-8441-2A3B64A4A7D9" d=" M 434.430099 880.013295 C 396.562137 892.094422 354.535204 937.639862 373.966527 976.896424 C 399.811540 1029.106963 464.031863 1029.285881 515.895449 1026.003498 C 562.391768 1023.060550 606.758539 989.643061 595.396473 936.588093 C 589.261501 907.927811 554.669638 881.845950 525.448391 876.284446 C 507.680989 872.900063 491.734388 873.911698 473.851832 873.364911 C 460.749083 872.971960 446.920351 874.734387 434.430099 880.013295" dclass="DKDrawableShape" fill-opacity="1.000000" fill="#9BD3DB"></path>
        <path ID="e52_A88ACE5D-CEE6-42EE-888F-B08DEE6D0342" d=" M 595.396476 936.588093 C 592.611037 923.577262 583.930944 911.121573 572.582236 900.849689 C 574.227801 909.024727 574.730150 917.111139 568.997384 926.184108 C 530.465188 1002.667269 432.722788 1012.974269 369.303546 960.439335 C 369.820912 965.975753 371.294578 971.493777 373.968199 976.894752 C 399.813209 1029.105292 464.033532 1029.284214 515.897121 1026.001824 C 562.393437 1023.060549 606.760208 989.643060 595.396476 936.588093 Z M 595.396476 936.588093" dclass="DKDrawableShape" fill-opacity="1.000000" fill="#70C3CF"></path>
        <path ID="contour_D1A36AB5-B7A2-4345-B9D0-4900ACDEFD62" d=" M 425.626507 869.644424 C 387.758546 881.723882 345.729952 927.269320 365.162936 966.525883 C 391.006274 1018.736422 455.228272 1018.911999 507.091858 1015.632954 C 553.588173 1012.690010 597.954943 979.270848 586.594550 926.215879 C 580.457905 897.557267 545.867717 871.473734 516.644800 865.913905 C 498.877399 862.529519 482.930797 863.541156 465.048240 862.996042 C 451.943822 862.601416 438.116758 864.365514 425.626507 869.644424" dclass="DKDrawableShape" stroke="#2C1F2E" stroke-opacity="1.000000" stroke-width="1.000000" fill="#000000" stroke-linecap="butt" fill-opacity="0.000000" stroke-linejoin="miter"></path>
        <Hotspots>
            <StickySpot id_sticky_spot="986C1BAA-6F60-49F3-A3B0-1AF5C3E477F9_32772" relative_location="{-0.003860,-0.498415}" position_kind="2"></StickySpot>
            <StickySpot id_sticky_spot="986C1BAA-6F60-49F3-A3B0-1AF5C3E477F9_32768" relative_location="{-0.500000,0.000000}" position_kind="0"></StickySpot>
            <StickySpot id_sticky_spot="986C1BAA-6F60-49F3-A3B0-1AF5C3E477F9_32769" relative_location="{0.500000,0.000000}" position_kind="0"></StickySpot>
            <StickySpot id_sticky_spot="986C1BAA-6F60-49F3-A3B0-1AF5C3E477F9_32770" relative_location="{0.000000,0.500000}" position_kind="0"></StickySpot>
            <StickySpot id_sticky_spot="986C1BAA-6F60-49F3-A3B0-1AF5C3E477F9_32771" relative_location="{0.000000,-0.500000}" position_kind="0"></StickySpot>
        </Hotspots>
        <g>
            <text style="font-family:Helvetica; font-size:36.000000; fill: #000000;" transform="matrix(1.000000,0.000000,-0.000000,1.000000,474.324253,929.120117)" text-anchor="middle">Add
</text>
            <text style="font-family:Helvetica; font-size:36.000000; fill: #000000;" transform="matrix(1.000000,0.000000,-0.000000,1.000000,474.324253,972.120117)" text-anchor="middle">Task</text>
        </g>
    </g>
    <g dclass="DiaConnector">
        <g enabled="1" ID="D9159C14-83E0-497F-82BA-2DE2A6024081" dclass="DiaConnectorStyle">
            <path d=" M 475.526978 658.770691 L 477.252505 813.206306" dclass="DiaConnectorStylizedPath" fill="none" stroke="#2C1F2E" stroke-opacity="1.000000" stroke-width="1.000000" stroke-linecap="round" stroke-linejoin="round"></path>
            <g dclass="DiaConnectorArrow">
                <path d=" M 467.019220 817.748130 C 469.227546 816.764429 476.189484 818.042103 479.513565 817.905527 C 484.009423 817.720533 488.260908 817.251740 492.571863 816.919659 C 489.354663 823.004148 486.039395 831.406835 485.036812 838.156085 C 483.776224 846.657492 480.197215 854.490066 480.321011 863.157867 C 480.121288 859.634072 477.200112 841.560334 475.291636 836.577185 C 472.937601 830.429342 468.720951 823.644206 467.019220 817.748130 Z M 467.019220 817.748130" dclass="DKDrawableShape" fill-opacity="1.000000" fill="#9BD3DB"></path>
                <path d=" M 472.830916 831.011446 C 473.735895 832.893221 474.598975 834.763689 475.292968 836.575862 C 477.201445 841.559011 478.209141 862.523359 480.322344 863.156544 C 482.436938 863.793640 483.777556 846.656169 485.038145 838.154761 C 486.040728 831.405512 489.355995 823.002825 492.573196 816.918336 C 491.432847 817.005654 490.299322 817.100745 489.163176 817.202408 C 484.163496 822.706275 478.763040 827.797254 472.830916 831.011446 Z M 472.830916 831.011446" dclass="DKDrawableShape" fill-opacity="1.000000" fill="#70C3CF"></path>
                <path d=" M 461.988125 814.530829 C 464.197798 813.547113 472.403293 814.447168 475.728707 814.309270 C 480.221870 814.124307 488.217511 813.367708 492.529814 813.035612 C 489.312628 819.121409 483.822821 827.793056 482.818920 834.544936 C 481.558316 843.045036 478.282417 850.629560 478.407589 859.299962 C 478.205128 855.772272 473.416602 837.964062 471.508125 832.980913 C 469.151410 826.834408 463.689827 820.424289 461.988125 814.530829 Z M 461.988125 814.530829" dclass="DKDrawableShape" stroke="#2C1F2E" stroke-opacity="1.000000" stroke-width="1.000000" fill="#000000" stroke-linecap="round" fill-opacity="0.000000" stroke-linejoin="round"></path>
            </g>
        </g>
        <ConnectorEndPoint id_target_sticky_spot="986C1BAA-6F60-49F3-A3B0-1AF5C3E477F9_32773" is_start="1" location="{475.5269775390625, 658.77069091796875}"></ConnectorEndPoint>
        <ConnectorEndPoint id_target_sticky_spot="986C1BAA-6F60-49F3-A3B0-1AF5C3E477F9_32772" is_start="0" location="{477.81112670898438, 863.20318603515625}"></ConnectorEndPoint>
        <text style="font-family:Helvetica; font-size:14.000000; fill: #000000;">
            <textPath xlink:href="#143F1465-6F37-4B3B-B0AE-3C0775D00783" baseline-shift="0.000000" startOffset="0.000000%"></textPath>
        </text>
    </g>
    <g ID="e52_CF428CE2-CCF3-4F8F-B6C3-69CD3BB6AA81" element_type="e52" dclass="DiaElement">
        <path ID="e52_232DF67B-3296-401A-8A13-A897BEAC4E5D" d=" M 1390.658099 257.801656 C 1352.985053 267.321715 1311.174443 303.212010 1330.505748 334.146601 C 1356.217730 375.289066 1420.107496 375.430056 1471.704128 372.843503 C 1517.961119 370.524429 1562.099523 344.191089 1550.795940 302.383204 C 1544.692546 279.798595 1510.278736 259.245808 1481.207898 254.863284 C 1463.531949 252.196354 1447.667430 252.993533 1429.876919 252.562659 C 1416.841613 252.253010 1403.084060 253.641821 1390.658099 257.801656" dclass="DKDrawableShape" fill-opacity="1.000000" fill="#C8DE90"></path>
        <path ID="e52_4EE36BD1-AE60-45A6-88CA-9F8838D0C96E" d=" M 1550.795943 302.383204 C 1548.024841 292.130530 1539.389427 282.315314 1528.099133 274.220959 C 1529.736228 280.662976 1530.235992 287.035156 1524.532734 294.184753 C 1486.198872 354.454304 1388.959576 362.576331 1325.866768 321.178239 C 1326.381471 325.540996 1327.847553 329.889258 1330.507411 334.145284 C 1356.219391 375.287750 1420.109157 375.428743 1471.705790 372.842184 C 1517.962779 370.524427 1562.101183 344.191088 1550.795943 302.383204 Z M 1550.795943 302.383204" dclass="DKDrawableShape" fill-opacity="1.000000" fill="#B2D354"></path>
        <path ID="contour_30C4E6AE-939B-431E-8664-6526DEFDAC34" d=" M 1381.899822 249.630876 C 1344.226776 259.149618 1302.414513 295.039912 1321.747471 325.974504 C 1347.457787 367.116969 1411.349219 367.255325 1462.945851 364.671403 C 1509.202838 362.352331 1553.341242 336.017673 1542.039323 294.209789 C 1535.934264 271.626495 1501.522120 251.072391 1472.449621 246.691186 C 1454.773673 244.024254 1438.909152 244.821434 1421.118641 244.391879 C 1408.081675 244.080909 1394.325782 245.471037 1381.899822 249.630876" dclass="DKDrawableShape" stroke="#2C1F2E" stroke-opacity="1.000000" stroke-width="1.000000" fill="#000000" stroke-linecap="butt" fill-opacity="0.000000" stroke-linejoin="miter"></path>
        <Hotspots>
            <StickySpot id_sticky_spot="ACD6D68D-B635-40DE-A21E-65F96E3FD903_32768" relative_location="{-0.500000,0.000000}" position_kind="0"></StickySpot>
            <StickySpot id_sticky_spot="ACD6D68D-B635-40DE-A21E-65F96E3FD903_32769" relative_location="{0.500000,0.000000}" position_kind="0"></StickySpot>
            <StickySpot id_sticky_spot="ACD6D68D-B635-40DE-A21E-65F96E3FD903_32770" relative_location="{0.000000,0.500000}" position_kind="0"></StickySpot>
            <StickySpot id_sticky_spot="ACD6D68D-B635-40DE-A21E-65F96E3FD903_32771" relative_location="{0.000000,-0.500000}" position_kind="0"></StickySpot>
        </Hotspots>
        <g>
            <text style="font-family:Helvetica; font-size:52.000000; fill: #000000;" transform="matrix(1.000000,0.000000,-0.000000,1.000000,1430.346909,320.469475)" text-anchor="middle">Event</text>
        </g>
    </g>
</svg>