<?xml version="1.0" encoding="UTF-8"?>
<!DOCTYPE svg PUBLIC "-//W3C//DTD SVG 1.1//EN" "http://www.w3.org/Graphics/SVG/1.1/DTD/svg11.dtd">

<svg x="0px" height="1280.000000px" xmlns:xlink="http://www.w3.org/1999/xlink" y="0px" xmlns="http://www.w3.org/2000/svg" width="1920.000000px" version="1.1" viewBox="0 0 1920.000000 1280.000000">
    <g ID="e52_6739B408-AABF-4420-A916-595F4CC2E0B3" element_type="e52" dclass="DiaElement">
        <path ID="e52_DA25DE95-6089-438B-8562-35B68014EF28" d=" M 870.430099 204.013295 C 832.562137 216.094422 790.535204 261.639862 809.966527 300.896424 C 835.811540 353.106963 900.031863 353.285881 951.895449 350.003498 C 998.391768 347.060550 1042.758539 313.643061 1031.396473 260.588093 C 1025.261501 231.927811 990.669638 205.845950 961.448391 200.284446 C 943.680989 196.900063 927.734388 197.911698 909.851832 197.364911 C 896.749083 196.971960 882.920351 198.734387 870.430099 204.013295" dclass="DKDrawableShape" fill-opacity="1.000000" fill="#9BD3DB"></path>
        <path ID="e52_25A05BB9-E5DB-4EE3-95EB-FBD9E8DFD3C9" d=" M 1031.396476 260.588093 C 1028.611037 247.577262 1019.930944 235.121573 1008.582236 224.849689 C 1010.227801 233.024727 1010.730150 241.111139 1004.997384 250.184108 C 966.465188 326.667269 868.722788 336.974269 805.303546 284.439335 C 805.820912 289.975753 807.294578 295.493777 809.968199 300.894752 C 835.813209 353.105292 900.033532 353.284214 951.897121 350.001824 C 998.393437 347.060549 1042.760208 313.643060 1031.396476 260.588093 Z M 1031.396476 260.588093" dclass="DKDrawableShape" fill-opacity="1.000000" fill="#70C3CF"></path>
        <path ID="contour_B95A0A10-7E82-4680-8691-25F3B12AED52" d=" M 861.626507 193.644424 C 823.758546 205.723882 781.729952 251.269320 801.162936 290.525883 C 827.006274 342.736422 891.228272 342.911999 943.091858 339.632954 C 989.588173 336.690010 1033.954943 303.270848 1022.594550 250.215879 C 1016.457905 221.557267 981.867717 195.473734 952.644800 189.913905 C 934.877399 186.529519 918.930797 187.541156 901.048240 186.996042 C 887.943822 186.601416 874.116758 188.365514 861.626507 193.644424" dclass="DKDrawableShape" stroke="#2C1F2E" stroke-opacity="1.000000" stroke-width="1.000000" fill="#000000" stroke-linecap="butt" fill-opacity="0.000000" stroke-linejoin="miter"></path>
        <Hotspots>
            <StickySpot id_sticky_spot="F0C6ED63-F0B1-4BA0-9A30-9E7E06647014_32774" relative_location="{-0.333097,0.347329}" position_kind="2"></StickySpot>
            <StickySpot id_sticky_spot="F0C6ED63-F0B1-4BA0-9A30-9E7E06647014_32773" relative_location="{0.287057,0.365838}" position_kind="2"></StickySpot>
            <StickySpot id_sticky_spot="F0C6ED63-F0B1-4BA0-9A30-9E7E06647014_32768" relative_location="{-0.500000,0.000000}" position_kind="0"></StickySpot>
            <StickySpot id_sticky_spot="F0C6ED63-F0B1-4BA0-9A30-9E7E06647014_32769" relative_location="{0.500000,0.000000}" position_kind="0"></StickySpot>
            <StickySpot id_sticky_spot="F0C6ED63-F0B1-4BA0-9A30-9E7E06647014_32770" relative_location="{0.000000,0.500000}" position_kind="0"></StickySpot>
            <StickySpot id_sticky_spot="F0C6ED63-F0B1-4BA0-9A30-9E7E06647014_32771" relative_location="{0.000000,-0.500000}" position_kind="0"></StickySpot>
            <StickySpot id_sticky_spot="F0C6ED63-F0B1-4BA0-9A30-9E7E06647014_32772" relative_location="{0.407641,0.224790}" position_kind="1"></StickySpot>
        </Hotspots>
        <g>
            <text style="font-family:Helvetica; font-size:36.000000; fill: #000000;" transform="matrix(1.000000,0.000000,-0.000000,1.000000,910.324253,274.620117)" text-anchor="middle">Root</text>
        </g>
    </g>
    <g ID="e52_90C598B0-E68C-47D3-8B9A-143DE7C84CFB" element_type="e52" dclass="DiaElement">
        <path ID="e52_BCBAD30D-DE92-4C43-AA05-76D3B44F7F45" d=" M 430.430099 522.013295 C 392.562137 534.094422 350.535204 579.639862 369.966527 618.896424 C 395.811540 671.106963 460.031863 671.285881 511.895449 668.003498 C 558.391768 665.060550 602.758539 631.643061 591.396473 578.588093 C 585.261501 549.927811 550.669638 523.845950 521.448391 518.284446 C 503.680989 514.900063 487.734388 515.911698 469.851832 515.364911 C 456.749083 514.971960 442.920351 516.734387 430.430099 522.013295" dclass="DKDrawableShape" fill-opacity="1.000000" fill="#9BD3DB"></path>
        <path ID="e52_E340E80E-FD44-44F5-B998-6FE4F822BDB0" d=" M 591.396476 578.588093 C 588.611037 565.577262 579.930944 553.121573 568.582236 542.849689 C 570.227801 551.024727 570.730150 559.111139 564.997384 568.184108 C 526.465188 644.667269 428.722788 654.974269 365.303546 602.439335 C 365.820912 607.975753 367.294578 613.493777 369.968199 618.894752 C 395.813209 671.105292 460.033532 671.284214 511.897121 668.001824 C 558.393437 665.060549 602.760208 631.643060 591.396476 578.588093 Z M 591.396476 578.588093" dclass="DKDrawableShape" fill-opacity="1.000000" fill="#70C3CF"></path>
        <path ID="contour_0D827EE1-A4DE-4E10-9C93-58842BAA36A9" d=" M 421.626507 511.644424 C 383.758546 523.723882 341.729952 569.269320 361.162936 608.525883 C 387.006274 660.736422 451.228272 660.911999 503.091858 657.632954 C 549.588173 654.690010 593.954943 621.270848 582.594550 568.215879 C 576.457905 539.557267 541.867717 513.473734 512.644800 507.913905 C 494.877399 504.529519 478.930797 505.541156 461.048240 504.996042 C 447.943822 504.601416 434.116758 506.365514 421.626507 511.644424" dclass="DKDrawableShape" stroke="#2C1F2E" stroke-opacity="1.000000" stroke-width="1.000000" fill="#000000" stroke-linecap="butt" fill-opacity="0.000000" stroke-linejoin="miter"></path>
        <Hotspots>
            <StickySpot id_sticky_spot="986C1BAA-6F60-49F3-A3B0-1AF5C3E477F9_32773" relative_location="{0.003382,0.436682}" position_kind="2"></StickySpot>
            <StickySpot id_sticky_spot="986C1BAA-6F60-49F3-A3B0-1AF5C3E477F9_32772" relative_location="{0.340662,-0.355217}" position_kind="2"></StickySpot>
            <StickySpot id_sticky_spot="986C1BAA-6F60-49F3-A3B0-1AF5C3E477F9_32768" relative_location="{-0.500000,0.000000}" position_kind="0"></StickySpot>
            <StickySpot id_sticky_spot="986C1BAA-6F60-49F3-A3B0-1AF5C3E477F9_32769" relative_location="{0.500000,0.000000}" position_kind="0"></StickySpot>
            <StickySpot id_sticky_spot="986C1BAA-6F60-49F3-A3B0-1AF5C3E477F9_32770" relative_location="{0.000000,0.500000}" position_kind="0"></StickySpot>
            <StickySpot id_sticky_spot="986C1BAA-6F60-49F3-A3B0-1AF5C3E477F9_32771" relative_location="{0.000000,-0.500000}" position_kind="0"></StickySpot>
        </Hotspots>
        <g>
            <text style="font-family:Helvetica; font-size:36.000000; fill: #000000;" transform="matrix(1.000000,0.000000,-0.000000,1.000000,470.324253,571.120117)" text-anchor="middle">Task
</text>
            <text style="font-family:Helvetica; font-size:36.000000; fill: #000000;" transform="matrix(1.000000,0.000000,-0.000000,1.000000,470.324253,614.120117)" text-anchor="middle">Form</text>
        </g>
    </g>
    <g ID="e52_A2BE27AF-353C-4E95-A774-405233AEE3DB" element_type="e52" dclass="DiaElement">
        <path ID="e52_F183468B-018E-4CAF-8672-813AC47C0703" d=" M 1230.430099 522.013295 C 1192.562137 534.094422 1150.535204 579.639862 1169.966527 618.896424 C 1195.811540 671.106963 1260.031863 671.285881 1311.895449 668.003498 C 1358.391768 665.060550 1402.758539 631.643061 1391.396473 578.588093 C 1385.261501 549.927811 1350.669638 523.845950 1321.448391 518.284446 C 1303.680989 514.900063 1287.734388 515.911698 1269.851832 515.364911 C 1256.749083 514.971960 1242.920351 516.734387 1230.430099 522.013295" dclass="DKDrawableShape" fill-opacity="1.000000" fill="#9BD3DB"></path>
        <path ID="e52_612AE9EC-32E9-44BA-8C29-375DEE2BA2E6" d=" M 1391.396476 578.588093 C 1388.611037 565.577262 1379.930944 553.121573 1368.582236 542.849689 C 1370.227801 551.024727 1370.730150 559.111139 1364.997384 568.184108 C 1326.465188 644.667269 1228.722788 654.974269 1165.303546 602.439335 C 1165.820912 607.975753 1167.294578 613.493777 1169.968199 618.894752 C 1195.813209 671.105292 1260.033532 671.284214 1311.897121 668.001824 C 1358.393437 665.060549 1402.760208 631.643060 1391.396476 578.588093 Z M 1391.396476 578.588093" dclass="DKDrawableShape" fill-opacity="1.000000" fill="#70C3CF"></path>
        <path ID="contour_CC40B01D-AB2E-44B3-AF60-ED52DFCCCC7B" d=" M 1221.626507 511.644424 C 1183.758546 523.723882 1141.729952 569.269320 1161.162936 608.525883 C 1187.006274 660.736422 1251.228272 660.911999 1303.091858 657.632954 C 1349.588173 654.690010 1393.954943 621.270848 1382.594550 568.215879 C 1376.457905 539.557267 1341.867717 513.473734 1312.644800 507.913905 C 1294.877399 504.529519 1278.930797 505.541156 1261.048240 504.996042 C 1247.943822 504.601416 1234.116758 506.365514 1221.626507 511.644424" dclass="DKDrawableShape" stroke="#2C1F2E" stroke-opacity="1.000000" stroke-width="1.000000" fill="#000000" stroke-linecap="butt" fill-opacity="0.000000" stroke-linejoin="miter"></path>
        <Hotspots>
            <StickySpot id_sticky_spot="F26C97BF-5090-48B1-8739-22AF202D0E19_32774" relative_location="{0.193501,0.414112}" position_kind="2"></StickySpot>
            <StickySpot id_sticky_spot="F26C97BF-5090-48B1-8739-22AF202D0E19_32773" relative_location="{-0.191208,0.416101}" position_kind="2"></StickySpot>
            <StickySpot id_sticky_spot="F26C97BF-5090-48B1-8739-22AF202D0E19_32772" relative_location="{-0.312976,-0.398871}" position_kind="2"></StickySpot>
            <StickySpot id_sticky_spot="F26C97BF-5090-48B1-8739-22AF202D0E19_32768" relative_location="{-0.500000,0.000000}" position_kind="0"></StickySpot>
            <StickySpot id_sticky_spot="F26C97BF-5090-48B1-8739-22AF202D0E19_32769" relative_location="{0.500000,0.000000}" position_kind="0"></StickySpot>
            <StickySpot id_sticky_spot="F26C97BF-5090-48B1-8739-22AF202D0E19_32770" relative_location="{0.000000,0.500000}" position_kind="0"></StickySpot>
            <StickySpot id_sticky_spot="F26C97BF-5090-48B1-8739-22AF202D0E19_32771" relative_location="{0.000000,-0.500000}" position_kind="0"></StickySpot>
        </Hotspots>
        <g>
            <text style="font-family:Helvetica; font-size:36.000000; fill: #000000;" transform="matrix(1.000000,0.000000,-0.000000,1.000000,1270.324253,571.120117)" text-anchor="middle">Tasks </text>
            <text style="font-family:Helvetica; font-size:36.000000; fill: #000000;" transform="matrix(1.000000,0.000000,-0.000000,1.000000,1270.324253,614.120117)" text-anchor="middle">Container</text>
        </g>
    </g>
    <g ID="e52_2B1F420F-6A4A-4267-86C5-4FE15645143E" element_type="e52" dclass="DiaElement">
        <path ID="e52_91840C6A-E860-4018-A6E9-42B0F0C336FD" d=" M 990.430099 884.013295 C 952.562137 896.094422 910.535204 941.639862 929.966527 980.896424 C 955.811540 1033.106963 1020.031863 1033.285881 1071.895449 1030.003498 C 1118.391768 1027.060550 1162.758539 993.643061 1151.396473 940.588093 C 1145.261501 911.927811 1110.669638 885.845950 1081.448391 880.284446 C 1063.680989 876.900063 1047.734388 877.911698 1029.851832 877.364911 C 1016.749083 876.971960 1002.920351 878.734387 990.430099 884.013295" dclass="DKDrawableShape" fill-opacity="1.000000" fill="#9BD3DB"></path>
        <path ID="e52_71DC7F0D-30B0-48DD-9E38-ECF731AFF546" d=" M 1151.396476 940.588093 C 1148.611037 927.577262 1139.930944 915.121573 1128.582236 904.849689 C 1130.227801 913.024727 1130.730150 921.111139 1124.997384 930.184108 C 1086.465188 1006.667269 988.722788 1016.974269 925.303546 964.439335 C 925.820912 969.975753 927.294578 975.493777 929.968199 980.894752 C 955.813209 1033.105292 1020.033532 1033.284214 1071.897121 1030.001824 C 1118.393437 1027.060549 1162.760208 993.643060 1151.396476 940.588093 Z M 1151.396476 940.588093" dclass="DKDrawableShape" fill-opacity="1.000000" fill="#70C3CF"></path>
        <path ID="contour_CC328D72-AB41-4B8D-9D40-112D444BE550" d=" M 981.626507 873.644424 C 943.758546 885.723882 901.729952 931.269320 921.162936 970.525883 C 947.006274 1022.736422 1011.228272 1022.911999 1063.091858 1019.632954 C 1109.588173 1016.690010 1153.954943 983.270848 1142.594550 930.215879 C 1136.457905 901.557267 1101.867717 875.473734 1072.644800 869.913905 C 1054.877399 866.529519 1038.930797 867.541156 1021.048240 866.996042 C 1007.943822 866.601416 994.116758 868.365514 981.626507 873.644424" dclass="DKDrawableShape" stroke="#2C1F2E" stroke-opacity="1.000000" stroke-width="1.000000" fill="#000000" stroke-linecap="butt" fill-opacity="0.000000" stroke-linejoin="miter"></path>
        <Hotspots>
            <StickySpot id_sticky_spot="D82CD0A5-EFC4-42CC-B922-5821E4B115C8_32772" relative_location="{0.211889,-0.461107}" position_kind="2"></StickySpot>
            <StickySpot id_sticky_spot="D82CD0A5-EFC4-42CC-B922-5821E4B115C8_32768" relative_location="{-0.500000,0.000000}" position_kind="0"></StickySpot>
            <StickySpot id_sticky_spot="D82CD0A5-EFC4-42CC-B922-5821E4B115C8_32769" relative_location="{0.500000,0.000000}" position_kind="0"></StickySpot>
            <StickySpot id_sticky_spot="D82CD0A5-EFC4-42CC-B922-5821E4B115C8_32770" relative_location="{0.000000,0.500000}" position_kind="0"></StickySpot>
            <StickySpot id_sticky_spot="D82CD0A5-EFC4-42CC-B922-5821E4B115C8_32771" relative_location="{0.000000,-0.500000}" position_kind="0"></StickySpot>
        </Hotspots>
        <g>
            <text style="font-family:Helvetica; font-size:36.000000; fill: #000000;" transform="matrix(1.000000,0.000000,-0.000000,1.000000,1030.324253,954.620117)" text-anchor="middle">Task1</text>
        </g>
    </g>
    <g ID="e52_A5AAA080-616A-4DFB-9728-B5301279D5AB" element_type="e52" dclass="DiaElement">
        <path ID="e52_87EEC338-9696-45CE-8147-D17579815838" d=" M 1470.430099 878.013295 C 1432.562137 890.094422 1390.535204 935.639862 1409.966527 974.896424 C 1435.811540 1027.106963 1500.031863 1027.285881 1551.895449 1024.003498 C 1598.391768 1021.060550 1642.758539 987.643061 1631.396473 934.588093 C 1625.261501 905.927811 1590.669638 879.845950 1561.448391 874.284446 C 1543.680989 870.900063 1527.734388 871.911698 1509.851832 871.364911 C 1496.749083 870.971960 1482.920351 872.734387 1470.430099 878.013295" dclass="DKDrawableShape" fill-opacity="1.000000" fill="#9BD3DB"></path>
        <path ID="e52_85F17078-9BEB-4F4A-9A14-F7AA1A591823" d=" M 1631.396476 934.588093 C 1628.611037 921.577262 1619.930944 909.121573 1608.582236 898.849689 C 1610.227801 907.024727 1610.730150 915.111139 1604.997384 924.184108 C 1566.465188 1000.667269 1468.722788 1010.974269 1405.303546 958.439335 C 1405.820912 963.975753 1407.294578 969.493777 1409.968199 974.894752 C 1435.813209 1027.105292 1500.033532 1027.284214 1551.897121 1024.001824 C 1598.393437 1021.060549 1642.760208 987.643060 1631.396476 934.588093 Z M 1631.396476 934.588093" dclass="DKDrawableShape" fill-opacity="1.000000" fill="#70C3CF"></path>
        <path ID="contour_B7ECB46E-ECED-451D-9FD8-9DAD672FCF54" d=" M 1461.626507 867.644424 C 1423.758546 879.723882 1381.729952 925.269320 1401.162936 964.525883 C 1427.006274 1016.736422 1491.228272 1016.911999 1543.091858 1013.632954 C 1589.588173 1010.690010 1633.954943 977.270848 1622.594550 924.215879 C 1616.457905 895.557267 1581.867717 869.473734 1552.644800 863.913905 C 1534.877399 860.529519 1518.930797 861.541156 1501.048240 860.996042 C 1487.943822 860.601416 1474.116758 862.365514 1461.626507 867.644424" dclass="DKDrawableShape" stroke="#2C1F2E" stroke-opacity="1.000000" stroke-width="1.000000" fill="#000000" stroke-linecap="butt" fill-opacity="0.000000" stroke-linejoin="miter"></path>
        <Hotspots>
            <StickySpot id_sticky_spot="4C82C2A6-5587-41CB-9DCD-BBB606E57B25_32772" relative_location="{-0.216621,-0.463592}" position_kind="2"></StickySpot>
            <StickySpot id_sticky_spot="4C82C2A6-5587-41CB-9DCD-BBB606E57B25_32768" relative_location="{-0.500000,0.000000}" position_kind="0"></StickySpot>
            <StickySpot id_sticky_spot="4C82C2A6-5587-41CB-9DCD-BBB606E57B25_32769" relative_location="{0.500000,0.000000}" position_kind="0"></StickySpot>
            <StickySpot id_sticky_spot="4C82C2A6-5587-41CB-9DCD-BBB606E57B25_32770" relative_location="{0.000000,0.500000}" position_kind="0"></StickySpot>
            <StickySpot id_sticky_spot="4C82C2A6-5587-41CB-9DCD-BBB606E57B25_32771" relative_location="{0.000000,-0.500000}" position_kind="0"></StickySpot>
        </Hotspots>
        <g>
            <text style="font-family:Helvetica; font-size:36.000000; fill: #000000;" transform="matrix(1.000000,0.000000,-0.000000,1.000000,1510.324253,948.620117)" text-anchor="middle">Task2</text>
        </g>
    </g>
    <defs></defs>
    <g dclass="DiaConnector">
        <g enabled="1" ID="BD2512B6-C805-45F1-AB38-3F9353A744FD" dclass="DiaConnectorStyle">
            <path d=" M 982.740952 329.136171 L 1163.095388 488.449256" dclass="DiaConnectorStylizedPath" fill="none" stroke="#2C1F2E" stroke-opacity="1.000000" stroke-width="1.000000" stroke-linecap="round" stroke-linejoin="round"></path>
            <g dclass="DiaConnectorArrow">
                <path d=" M 1159.605490 499.087361 C 1160.355943 496.789276 1165.971067 492.479820 1168.098077 489.921696 C 1170.974679 486.461622 1173.476875 482.992629 1176.120382 479.571155 C 1178.478552 486.037253 1182.491151 494.130163 1186.827199 499.398581 C 1192.290441 506.033037 1195.703197 513.939465 1202.217953 519.658210 C 1199.469305 517.444176 1184.099791 507.495743 1179.122766 505.571353 C 1172.982815 503.196808 1165.121339 501.777158 1159.605490 499.087361 Z M 1159.605490 499.087361" dclass="DKDrawableShape" fill-opacity="1.000000" fill="#9BD3DB"></path>
                <path d=" M 1173.343236 503.666194 C 1175.346237 504.256152 1177.312761 504.869620 1179.122677 505.569477 C 1184.099702 507.493867 1200.331402 520.799928 1202.217865 519.656334 C 1204.108163 518.514330 1192.290352 506.031161 1186.827110 499.396705 C 1182.491063 494.128286 1178.478463 486.035377 1176.120294 479.569279 C 1175.420634 480.473987 1174.731317 481.378843 1174.045120 482.290048 C 1174.777534 489.689570 1174.934908 497.109693 1173.343236 503.666194 Z M 1173.343236 503.666194" dclass="DKDrawableShape" fill-opacity="1.000000" fill="#70C3CF"></path>
                <path d=" M 1153.845478 500.663813 C 1154.596823 498.364719 1160.765382 492.879362 1162.892304 490.319363 C 1165.767122 486.861309 1170.565715 480.421105 1173.210114 476.998621 C 1175.569264 483.465585 1178.323701 493.352369 1182.660817 498.623530 C 1188.123079 505.257120 1191.554969 512.772348 1198.072578 518.491815 C 1195.319203 516.277202 1178.894909 507.892400 1173.917884 505.968010 C 1167.777131 503.596350 1159.359366 503.351878 1153.845478 500.663813 Z M 1153.845478 500.663813" dclass="DKDrawableShape" stroke="#2C1F2E" stroke-opacity="1.000000" stroke-width="1.000000" fill="#000000" stroke-linecap="round" fill-opacity="0.000000" stroke-linejoin="round"></path>
            </g>
        </g>
        <ConnectorEndPoint id_target_sticky_spot="F0C6ED63-F0B1-4BA0-9A30-9E7E06647014_32773" is_start="1" location="{982.74095172194825, 329.13617053187915}"></ConnectorEndPoint>
        <ConnectorEndPoint id_target_sticky_spot="F26C97BF-5090-48B1-8739-22AF202D0E19_32772" is_start="0" location="{1200.5690485758248, 521.55098941947017}"></ConnectorEndPoint>
        <text style="font-family:Helvetica; font-size:14.000000; fill: #000000;">
            <textPath xlink:href="#20961E5E-08C1-4DE4-94AE-CE1D6905850F" baseline-shift="0.000000" startOffset="0.000000%"></textPath>
        </text>
    </g>
    <g dclass="DiaConnector">
        <g enabled="1" ID="E4F7F749-662C-4DEF-8F1D-F21BB37C8982" dclass="DiaConnectorStyle">
            <path d=" M 1229.420894 655.390773 L 1112.559351 831.656933" dclass="DiaConnectorStylizedPath" fill="none" stroke="#2C1F2E" stroke-opacity="1.000000" stroke-width="1.000000" stroke-linecap="round" stroke-linejoin="round"></path>
            <g dclass="DiaConnectorArrow">
                <path d=" M 1101.542139 829.664521 C 1103.921644 830.091515 1108.962969 835.060023 1111.789513 836.814679 C 1115.612600 839.187644 1119.392985 841.188538 1123.145754 843.335941 C 1117.065789 846.561681 1109.602218 851.650026 1104.980774 856.669966 C 1099.161447 862.994398 1091.800017 867.462940 1087.032419 874.702837 C 1088.847045 871.675603 1096.585272 855.083040 1097.806290 849.888508 C 1099.313109 843.480157 1099.637164 835.498102 1101.542139 829.664521 Z M 1101.542139 829.664521" dclass="DKDrawableShape" fill-opacity="1.000000" fill="#9BD3DB"></path>
                <path d=" M 1098.897800 843.901755 C 1098.589157 845.966895 1098.252208 847.999141 1097.808136 849.888161 C 1096.587118 855.082694 1085.641896 872.991392 1087.034264 874.702491 C 1088.425586 876.417607 1099.163293 862.994052 1104.982620 856.669620 C 1109.604064 851.649680 1117.067635 846.561335 1123.147600 843.335595 C 1122.155200 842.767122 1121.164077 842.208913 1120.167093 841.654669 C 1112.938814 843.398609 1105.610978 844.575817 1098.897800 843.901755 Z M 1098.897800 843.901755" dclass="DKDrawableShape" fill-opacity="1.000000" fill="#70C3CF"></path>
                <path d=" M 1099.187863 824.176322 C 1101.568491 824.604060 1107.850700 829.958881 1110.679090 831.713191 C 1114.499930 834.084668 1121.539330 837.951134 1125.293223 840.099280 C 1119.212535 843.326111 1109.798985 847.415184 1105.174972 852.436560 C 1099.356368 858.759902 1092.385049 863.193549 1087.617127 870.436371 C 1089.431677 867.404376 1095.475972 849.982297 1096.696990 844.787764 C 1098.200840 838.379016 1097.284334 830.007723 1099.187863 824.176322 Z M 1099.187863 824.176322" dclass="DKDrawableShape" stroke="#2C1F2E" stroke-opacity="1.000000" stroke-width="1.000000" fill="#000000" stroke-linecap="round" fill-opacity="0.000000" stroke-linejoin="round"></path>
            </g>
        </g>
        <ConnectorEndPoint id_target_sticky_spot="F26C97BF-5090-48B1-8739-22AF202D0E19_32773" is_start="1" location="{1229.4208940937226, 655.39077265127719}"></ConnectorEndPoint>
        <ConnectorEndPoint id_target_sticky_spot="D82CD0A5-EFC4-42CC-B922-5821E4B115C8_32772" is_start="0" location="{1084.930695355227, 873.33015574850788}"></ConnectorEndPoint>
        <text style="font-family:Helvetica; font-size:14.000000; fill: #000000;">
            <textPath xlink:href="#30F0CC97-5B62-4B14-A302-7EA118A4B934" baseline-shift="0.000000" startOffset="0.000000%"></textPath>
        </text>
    </g>
    <g dclass="DiaConnector">
        <g enabled="1" ID="F3C72340-AF3B-49A9-8B4B-B6F47CA182FD" dclass="DiaConnectorStyle">
            <path d=" M 1320.573761 655.063990 L 1435.449763 825.463394" dclass="DiaConnectorStylizedPath" fill="none" stroke="#2C1F2E" stroke-opacity="1.000000" stroke-width="1.000000" stroke-linecap="round" stroke-linejoin="round"></path>
            <g dclass="DiaConnectorArrow">
                <path d=" M 1429.397823 834.882665 C 1430.701849 832.847011 1437.219946 830.087401 1439.921696 828.146083 C 1443.575692 825.520199 1446.869546 822.791570 1450.288229 820.144455 C 1450.945297 826.995706 1452.794740 835.837408 1455.667239 842.026616 C 1459.287358 849.821342 1460.603094 858.331768 1465.471147 865.504505 C 1463.367297 862.670633 1450.992021 849.178198 1446.658537 846.064522 C 1441.312623 842.222822 1434.060429 838.872616 1429.397823 834.882665 Z M 1429.397823 834.882665" dclass="DKDrawableShape" fill-opacity="1.000000" fill="#9BD3DB"></path>
                <path d=" M 1441.543481 842.767736 C 1443.333871 843.842245 1445.083044 844.930341 1446.658923 846.062685 C 1450.992406 849.176360 1463.358178 866.135341 1465.471533 865.502667 C 1467.588201 864.872496 1459.287744 849.819504 1455.667625 842.024778 C 1452.795126 835.835570 1450.945682 826.993868 1450.288615 820.142617 C 1449.384004 820.842402 1448.489367 821.544930 1447.596153 822.254388 C 1446.445032 829.600426 1444.732155 836.821856 1441.543481 842.767736 Z M 1441.543481 842.767736" dclass="DKDrawableShape" fill-opacity="1.000000" fill="#70C3CF"></path>
                <path d=" M 1423.426485 834.960604 C 1424.731629 832.924197 1432.080976 829.165561 1434.783112 827.222405 C 1438.434875 824.598029 1444.698265 819.570836 1448.118065 816.922968 C 1448.775863 823.775303 1448.956616 834.037017 1451.829460 840.229148 C 1455.448848 848.022789 1456.881440 856.159385 1461.752073 863.333539 C 1459.643793 860.497918 1445.854555 848.253767 1441.521071 845.140092 C 1436.173655 841.300982 1428.087629 838.948385 1423.426485 834.960604 Z M 1423.426485 834.960604" dclass="DKDrawableShape" stroke="#2C1F2E" stroke-opacity="1.000000" stroke-width="1.000000" fill="#000000" stroke-linecap="round" fill-opacity="0.000000" stroke-linejoin="round"></path>
            </g>
        </g>
        <ConnectorEndPoint id_target_sticky_spot="F26C97BF-5090-48B1-8739-22AF202D0E19_32774" is_start="1" location="{1320.5737605648308, 655.06398996413623}"></ConnectorEndPoint>
        <ConnectorEndPoint id_target_sticky_spot="4C82C2A6-5587-41CB-9DCD-BBB606E57B25_32772" is_start="0" location="{1463.3994005675831, 866.92202263488502}"></ConnectorEndPoint>
        <text style="font-family:Helvetica; font-size:14.000000; fill: #000000;">
            <textPath xlink:href="#6D59EA94-2B2A-4082-85AB-9E41E8BE9387" baseline-shift="0.000000" startOffset="0.000000%"></textPath>
        </text>
    </g>
    <g dclass="DiaConnector">
        <g enabled="1" ID="FEA00032-C787-44D1-9358-DB6A4F3369AC" dclass="DiaConnectorStyle">
            <path d=" M 835.801742 326.096523 L 595.966392 499.432071" dclass="DiaConnectorStylizedPath" fill="none" stroke="#2C1F2E" stroke-opacity="1.000000" stroke-width="1.000000" stroke-linecap="round" stroke-linejoin="round"></path>
            <g dclass="DiaConnectorArrow">
                <path d=" M 586.354601 493.690807 C 588.431734 494.927693 591.402629 501.352241 593.431099 503.989186 C 596.174852 507.555525 599.009541 510.758559 601.766834 514.089018 C 594.940680 514.969364 586.164056 517.106421 580.071906 520.179408 C 572.399497 524.052023 563.936552 525.644844 556.926533 530.744426 C 559.690224 528.549197 572.771533 515.740113 575.742102 511.307306 C 579.407262 505.838846 582.518966 498.481163 586.354601 493.690807 Z M 586.354601 493.690807" dclass="DKDrawableShape" fill-opacity="1.000000" fill="#9BD3DB"></path>
                <path d=" M 578.870174 506.087367 C 577.854676 507.911875 576.824254 509.695632 575.743951 511.307632 C 572.773383 515.740439 556.227064 528.653173 556.928382 530.744751 C 557.627307 532.839722 572.401346 524.052349 580.073756 520.179734 C 586.165906 517.106747 594.942530 514.969689 601.768683 514.089343 C 601.039744 513.208056 600.308389 512.336826 599.570153 511.467245 C 592.190456 510.556517 584.916965 509.080264 578.870174 506.087367 Z M 578.870174 506.087367" dclass="DKDrawableShape" fill-opacity="1.000000" fill="#70C3CF"></path>
                <path d=" M 586.081795 487.725195 C 588.159718 488.963174 592.156238 496.185921 594.186558 498.823191 C 596.928732 502.387347 602.157687 508.483309 604.915769 511.814859 C 598.088555 512.695971 587.838209 513.211576 581.743150 516.285004 C 574.071800 520.156852 565.986300 521.854265 558.974950 526.956471 C 561.740244 524.756758 573.527782 510.575211 576.498350 506.142404 C 580.160871 500.672526 582.248282 492.514019 586.081795 487.725195 Z M 586.081795 487.725195" dclass="DKDrawableShape" stroke="#2C1F2E" stroke-opacity="1.000000" stroke-width="1.000000" fill="#000000" stroke-linecap="round" fill-opacity="0.000000" stroke-linejoin="round"></path>
            </g>
        </g>
        <ConnectorEndPoint id_target_sticky_spot="F0C6ED63-F0B1-4BA0-9A30-9E7E06647014_32774" is_start="1" location="{835.80174200460806, 326.09652320915848}"></ConnectorEndPoint>
        <ConnectorEndPoint id_target_sticky_spot="986C1BAA-6F60-49F3-A3B0-1AF5C3E477F9_32772" is_start="0" location="{555.4421456539402, 528.72004966259556}"></ConnectorEndPoint>
        <text style="font-family:Helvetica; font-size:14.000000; fill: #000000;">
            <textPath xlink:href="#00F069B2-2240-41C5-BF96-2D70B2DCA969" baseline-shift="0.000000" startOffset="0.000000%"></textPath>
        </text>
    </g>
    <g ID="e52_A344F41B-1B79-40A3-9AE2-B13BC24A94D0" element_type="e52" dclass="DiaElement">
        <path ID="e52_E81712C5-A34D-4CC3-B971-4D476F30B013" d=" M 434.430099 880.013295 C 396.562137 892.094422 354.535204 937.639862 373.966527 976.896424 C 399.811540 1029.106963 464.031863 1029.285881 515.895449 1026.003498 C 562.391768 1023.060550 606.758539 989.643061 595.396473 936.588093 C 589.261501 907.927811 554.669638 881.845950 525.448391 876.284446 C 507.680989 872.900063 491.734388 873.911698 473.851832 873.364911 C 460.749083 872.971960 446.920351 874.734387 434.430099 880.013295" dclass="DKDrawableShape" fill-opacity="1.000000" fill="#9BD3DB"></path>
        <path ID="e52_271277C2-611E-4E1A-975B-5E65DBBDD0B9" d=" M 595.396476 936.588093 C 592.611037 923.577262 583.930944 911.121573 572.582236 900.849689 C 574.227801 909.024727 574.730150 917.111139 568.997384 926.184108 C 530.465188 1002.667269 432.722788 1012.974269 369.303546 960.439335 C 369.820912 965.975753 371.294578 971.493777 373.968199 976.894752 C 399.813209 1029.105292 464.033532 1029.284214 515.897121 1026.001824 C 562.393437 1023.060549 606.760208 989.643060 595.396476 936.588093 Z M 595.396476 936.588093" dclass="DKDrawableShape" fill-opacity="1.000000" fill="#70C3CF"></path>
        <path ID="contour_9A025CB8-2CC0-469F-A798-9F8CCBD9C4C1" d=" M 425.626507 869.644424 C 387.758546 881.723882 345.729952 927.269320 365.162936 966.525883 C 391.006274 1018.736422 455.228272 1018.911999 507.091858 1015.632954 C 553.588173 1012.690010 597.954943 979.270848 586.594550 926.215879 C 580.457905 897.557267 545.867717 871.473734 516.644800 865.913905 C 498.877399 862.529519 482.930797 863.541156 465.048240 862.996042 C 451.943822 862.601416 438.116758 864.365514 425.626507 869.644424" dclass="DKDrawableShape" stroke="#2C1F2E" stroke-opacity="1.000000" stroke-width="1.000000" fill="#000000" stroke-linecap="butt" fill-opacity="0.000000" stroke-linejoin="miter"></path>
        <Hotspots>
            <StickySpot id_sticky_spot="986C1BAA-6F60-49F3-A3B0-1AF5C3E477F9_32772" relative_location="{-0.003860,-0.498415}" position_kind="2"></StickySpot>
            <StickySpot id_sticky_spot="986C1BAA-6F60-49F3-A3B0-1AF5C3E477F9_32768" relative_location="{-0.500000,0.000000}" position_kind="0"></StickySpot>
            <StickySpot id_sticky_spot="986C1BAA-6F60-49F3-A3B0-1AF5C3E477F9_32769" relative_location="{0.500000,0.000000}" position_kind="0"></StickySpot>
            <StickySpot id_sticky_spot="986C1BAA-6F60-49F3-A3B0-1AF5C3E477F9_32770" relative_location="{0.000000,0.500000}" position_kind="0"></StickySpot>
            <StickySpot id_sticky_spot="986C1BAA-6F60-49F3-A3B0-1AF5C3E477F9_32771" relative_location="{0.000000,-0.500000}" position_kind="0"></StickySpot>
        </Hotspots>
        <g>
            <text style="font-family:Helvetica; font-size:36.000000; fill: #000000;" transform="matrix(1.000000,0.000000,-0.000000,1.000000,474.324253,929.120117)" text-anchor="middle">Add
</text>
            <text style="font-family:Helvetica; font-size:36.000000; fill: #000000;" transform="matrix(1.000000,0.000000,-0.000000,1.000000,474.324253,972.120117)" text-anchor="middle">Task</text>
        </g>
    </g>
    <g dclass="DiaConnector">
        <g enabled="1" ID="5D875FA8-E341-4DB6-81B4-5165A0E160A3" dclass="DiaConnectorStyle">
            <path d=" M 475.526978 658.770713 L 477.252516 813.206317" dclass="DiaConnectorStylizedPath" fill="none" stroke="#2C1F2E" stroke-opacity="1.000000" stroke-width="1.000000" stroke-linecap="round" stroke-linejoin="round"></path>
            <g dclass="DiaConnectorArrow">
                <path d=" M 467.019231 817.748144 C 469.227557 816.764443 476.189495 818.042116 479.513576 817.905540 C 484.009433 817.720546 488.260918 817.251752 492.571874 816.919671 C 489.354675 823.004160 486.039408 831.406847 485.036826 838.156097 C 483.776238 846.657505 480.197230 854.490078 480.321027 863.157880 C 480.121304 859.634085 477.200126 841.560347 475.291649 836.577199 C 472.937613 830.429356 468.720963 823.644220 467.019231 817.748144 Z M 467.019231 817.748144" dclass="DKDrawableShape" fill-opacity="1.000000" fill="#9BD3DB"></path>
                <path d=" M 472.830928 831.011460 C 473.735907 832.893235 474.598988 834.763703 475.292981 836.575875 C 477.201459 841.559024 478.209157 862.523372 480.322360 863.156556 C 482.436954 863.793652 483.777571 846.656181 485.038158 838.154774 C 486.040741 831.405524 489.356007 823.002837 492.573206 816.918348 C 491.432857 817.005665 490.299332 817.100757 489.163187 817.202420 C 484.163507 822.706287 478.763052 827.797267 472.830928 831.011460 Z M 472.830928 831.011460" dclass="DKDrawableShape" fill-opacity="1.000000" fill="#70C3CF"></path>
                <path d=" M 461.988135 814.530844 C 464.197808 813.547128 472.403304 814.447182 475.728718 814.309283 C 480.221880 814.124320 488.217522 813.367720 492.529824 813.035624 C 489.312639 819.121421 483.822833 827.793068 482.818933 834.544949 C 481.558330 843.045048 478.282432 850.629573 478.407605 859.299975 C 478.205143 855.772285 473.416615 837.964075 471.508138 832.980927 C 469.151422 826.834422 463.689838 820.424303 461.988135 814.530844 Z M 461.988135 814.530844" dclass="DKDrawableShape" stroke="#2C1F2E" stroke-opacity="1.000000" stroke-width="1.000000" fill="#000000" stroke-linecap="round" fill-opacity="0.000000" stroke-linejoin="round"></path>
            </g>
        </g>
        <ConnectorEndPoint id_target_sticky_spot="986C1BAA-6F60-49F3-A3B0-1AF5C3E477F9_32773" is_start="1" location="{475.52697813778849, 658.77071267165081}"></ConnectorEndPoint>
        <ConnectorEndPoint id_target_sticky_spot="986C1BAA-6F60-49F3-A3B0-1AF5C3E477F9_32772" is_start="0" location="{477.81113999813698, 863.20319917284962}"></ConnectorEndPoint>
        <text style="font-family:Helvetica; font-size:14.000000; fill: #000000;">
            <textPath xlink:href="#143F1465-6F37-4B3B-B0AE-3C0775D00783" baseline-shift="0.000000" startOffset="0.000000%"></textPath>
        </text>
    </g>
    <g ID="e52_001B6A76-4907-455D-AEC2-51CEB0AA6CAC" element_type="e52" dclass="DiaElement">
        <path ID="e52_3F09AD99-0955-4D35-B685-215762955980" d=" M 630.658099 897.801656 C 592.985053 907.321715 551.174443 943.212010 570.505748 974.146601 C 596.217730 1015.289066 660.107496 1015.430056 711.704128 1012.843503 C 757.961119 1010.524429 802.099523 984.191089 790.795940 942.383204 C 784.692546 919.798595 750.278736 899.245808 721.207898 894.863284 C 703.531949 892.196354 687.667430 892.993533 669.876919 892.562659 C 656.841613 892.253010 643.084060 893.641821 630.658099 897.801656" dclass="DKDrawableShape" fill-opacity="1.000000" fill="#C8DF90"></path>
        <path ID="e52_6A2ADBD2-C384-42B8-8D42-119589A51378" d=" M 790.795943 942.383204 C 788.024841 932.130530 779.389427 922.315314 768.099133 914.220959 C 769.736228 920.662976 770.235992 927.035156 764.532734 934.184753 C 726.198872 994.454304 628.959576 1002.576331 565.866768 961.178239 C 566.381471 965.540996 567.847553 969.889258 570.507411 974.145284 C 596.219391 1015.287750 660.109157 1015.428743 711.705790 1012.842184 C 757.962779 1010.524427 802.101183 984.191088 790.795943 942.383204 Z M 790.795943 942.383204" dclass="DKDrawableShape" fill-opacity="1.000000" fill="#B3D455"></path>
        <path ID="contour_B723DA30-3A51-4021-A907-03C2ABC19EEE" d=" M 621.899822 889.630876 C 584.226776 899.149618 542.414513 935.039912 561.747471 965.974504 C 587.457787 1007.116969 651.349219 1007.255325 702.945851 1004.671403 C 749.202838 1002.352331 793.341242 976.017673 782.039323 934.209789 C 775.934264 911.626495 741.522120 891.072391 712.449621 886.691186 C 694.773673 884.024254 678.909152 884.821434 661.118641 884.391879 C 648.081675 884.080909 634.325782 885.471037 621.899822 889.630876" dclass="DKDrawableShape" stroke="#2D1F2E" stroke-opacity="1.000000" stroke-width="1.000000" fill="#000000" stroke-linecap="butt" fill-opacity="0.000000" stroke-linejoin="miter"></path>
        <Hotspots>
            <StickySpot id_sticky_spot="ACD6D68D-B635-40DE-A21E-65F96E3FD903_32768" relative_location="{-0.500000,0.000000}" position_kind="0"></StickySpot>
            <StickySpot id_sticky_spot="ACD6D68D-B635-40DE-A21E-65F96E3FD903_32769" relative_location="{0.500000,0.000000}" position_kind="0"></StickySpot>
            <StickySpot id_sticky_spot="ACD6D68D-B635-40DE-A21E-65F96E3FD903_32770" relative_location="{0.000000,0.500000}" position_kind="0"></StickySpot>
            <StickySpot id_sticky_spot="ACD6D68D-B635-40DE-A21E-65F96E3FD903_32771" relative_location="{0.000000,-0.500000}" position_kind="0"></StickySpot>
        </Hotspots>
        <g>
            <text style="font-family:Helvetica; font-size:52.000000; fill: #000000;" transform="matrix(1.000000,0.000000,-0.000000,1.000000,670.346909,960.469475)" text-anchor="middle">Event</text>
        </g>
    </g>
</svg>