<?xml version="1.0" encoding="UTF-8"?>
<!DOCTYPE svg PUBLIC "-//W3C//DTD SVG 1.1//EN" "http://www.w3.org/Graphics/SVG/1.1/DTD/svg11.dtd">

<svg x="0px" height="1280.000000px" xmlns:xlink="http://www.w3.org/1999/xlink" y="0px" xmlns="http://www.w3.org/2000/svg" width="1920.000000px" version="1.1" viewBox="0 0 1920.000000 1280.000000">
    <g ID="e52_438EF92D-0225-4701-A186-2F5C68EB3994" element_type="e52" dclass="DiaElement">
        <path ID="e52_D9CFAC5D-817D-4A7B-A5CD-DD568D06FC96" d=" M 870.430099 204.013295 C 832.562137 216.094422 790.535204 261.639862 809.966527 300.896424 C 835.811540 353.106963 900.031863 353.285881 951.895449 350.003498 C 998.391768 347.060550 1042.758539 313.643061 1031.396473 260.588093 C 1025.261501 231.927811 990.669638 205.845950 961.448391 200.284446 C 943.680989 196.900063 927.734388 197.911698 909.851832 197.364911 C 896.749083 196.971960 882.920351 198.734387 870.430099 204.013295" dclass="DKDrawableShape" fill-opacity="1.000000" fill="#9BD3DC"></path>
        <path ID="e52_F959AB33-9073-4D4B-9FE3-7321012227FA" d=" M 1031.396476 260.588093 C 1028.611037 247.577262 1019.930944 235.121573 1008.582236 224.849689 C 1010.227801 233.024727 1010.730150 241.111139 1004.997384 250.184108 C 966.465188 326.667269 868.722788 336.974269 805.303546 284.439335 C 805.820912 289.975753 807.294578 295.493777 809.968199 300.894752 C 835.813209 353.105292 900.033532 353.284214 951.897121 350.001824 C 998.393437 347.060549 1042.760208 313.643060 1031.396476 260.588093 Z M 1031.396476 260.588093" dclass="DKDrawableShape" fill-opacity="1.000000" fill="#70C3CF"></path>
        <path ID="contour_F003AC51-EC4C-41E5-BF00-F371F80F9CFB" d=" M 861.626507 193.644424 C 823.758546 205.723882 781.729952 251.269320 801.162936 290.525883 C 827.006274 342.736422 891.228272 342.911999 943.091858 339.632954 C 989.588173 336.690010 1033.954943 303.270848 1022.594550 250.215879 C 1016.457905 221.557267 981.867717 195.473734 952.644800 189.913905 C 934.877399 186.529519 918.930797 187.541156 901.048240 186.996042 C 887.943822 186.601416 874.116758 188.365514 861.626507 193.644424" dclass="DKDrawableShape" stroke="#2D1F2E" stroke-opacity="1.000000" stroke-width="1.000000" fill="#000000" stroke-linecap="butt" fill-opacity="0.000000" stroke-linejoin="miter"></path>
        <Hotspots>
            <StickySpot id_sticky_spot="F0C6ED63-F0B1-4BA0-9A30-9E7E06647014_32773" relative_location="{0.287057,0.365838}" position_kind="2"></StickySpot>
            <StickySpot id_sticky_spot="F0C6ED63-F0B1-4BA0-9A30-9E7E06647014_32774" relative_location="{-0.333097,0.347329}" position_kind="2"></StickySpot>
            <StickySpot id_sticky_spot="F0C6ED63-F0B1-4BA0-9A30-9E7E06647014_32768" relative_location="{-0.500000,0.000000}" position_kind="0"></StickySpot>
            <StickySpot id_sticky_spot="F0C6ED63-F0B1-4BA0-9A30-9E7E06647014_32769" relative_location="{0.500000,0.000000}" position_kind="0"></StickySpot>
            <StickySpot id_sticky_spot="F0C6ED63-F0B1-4BA0-9A30-9E7E06647014_32770" relative_location="{0.000000,0.500000}" position_kind="0"></StickySpot>
            <StickySpot id_sticky_spot="F0C6ED63-F0B1-4BA0-9A30-9E7E06647014_32771" relative_location="{0.000000,-0.500000}" position_kind="0"></StickySpot>
            <StickySpot id_sticky_spot="F0C6ED63-F0B1-4BA0-9A30-9E7E06647014_32772" relative_location="{0.407641,0.224790}" position_kind="1"></StickySpot>
        </Hotspots>
        <g>
            <text style="font-family:Helvetica; font-size:36.000000; fill: #000000;" transform="matrix(1.000000,0.000000,-0.000000,1.000000,910.324253,274.620117)" text-anchor="middle">Root</text>
        </g>
    </g>
    <g ID="e52_44A969ED-CEA0-4D54-9C20-43ED6A950E25" element_type="e52" dclass="DiaElement">
        <path ID="e52_C9D9A5C0-48FE-4130-8BC3-8B9EA3164A2C" d=" M 430.430099 522.013295 C 392.562137 534.094422 350.535204 579.639862 369.966527 618.896424 C 395.811540 671.106963 460.031863 671.285881 511.895449 668.003498 C 558.391768 665.060550 602.758539 631.643061 591.396473 578.588093 C 585.261501 549.927811 550.669638 523.845950 521.448391 518.284446 C 503.680989 514.900063 487.734388 515.911698 469.851832 515.364911 C 456.749083 514.971960 442.920351 516.734387 430.430099 522.013295" dclass="DKDrawableShape" fill-opacity="1.000000" fill="#9BD3DC"></path>
        <path ID="e52_ECD31085-03D9-4F94-8262-9F59D71C4F9F" d=" M 591.396476 578.588093 C 588.611037 565.577262 579.930944 553.121573 568.582236 542.849689 C 570.227801 551.024727 570.730150 559.111139 564.997384 568.184108 C 526.465188 644.667269 428.722788 654.974269 365.303546 602.439335 C 365.820912 607.975753 367.294578 613.493777 369.968199 618.894752 C 395.813209 671.105292 460.033532 671.284214 511.897121 668.001824 C 558.393437 665.060549 602.760208 631.643060 591.396476 578.588093 Z M 591.396476 578.588093" dclass="DKDrawableShape" fill-opacity="1.000000" fill="#70C3CF"></path>
        <path ID="contour_C4AC4144-2975-4018-8122-595C2F73CD21" d=" M 421.626507 511.644424 C 383.758546 523.723882 341.729952 569.269320 361.162936 608.525883 C 387.006274 660.736422 451.228272 660.911999 503.091858 657.632954 C 549.588173 654.690010 593.954943 621.270848 582.594550 568.215879 C 576.457905 539.557267 541.867717 513.473734 512.644800 507.913905 C 494.877399 504.529519 478.930797 505.541156 461.048240 504.996042 C 447.943822 504.601416 434.116758 506.365514 421.626507 511.644424" dclass="DKDrawableShape" stroke="#2D1F2E" stroke-opacity="1.000000" stroke-width="1.000000" fill="#000000" stroke-linecap="butt" fill-opacity="0.000000" stroke-linejoin="miter"></path>
        <Hotspots>
            <StickySpot id_sticky_spot="986C1BAA-6F60-49F3-A3B0-1AF5C3E477F9_32773" relative_location="{0.003382,0.436682}" position_kind="2"></StickySpot>
            <StickySpot id_sticky_spot="986C1BAA-6F60-49F3-A3B0-1AF5C3E477F9_32772" relative_location="{0.340662,-0.355217}" position_kind="2"></StickySpot>
            <StickySpot id_sticky_spot="986C1BAA-6F60-49F3-A3B0-1AF5C3E477F9_32768" relative_location="{-0.500000,0.000000}" position_kind="0"></StickySpot>
            <StickySpot id_sticky_spot="986C1BAA-6F60-49F3-A3B0-1AF5C3E477F9_32769" relative_location="{0.500000,0.000000}" position_kind="0"></StickySpot>
            <StickySpot id_sticky_spot="986C1BAA-6F60-49F3-A3B0-1AF5C3E477F9_32770" relative_location="{0.000000,0.500000}" position_kind="0"></StickySpot>
            <StickySpot id_sticky_spot="986C1BAA-6F60-49F3-A3B0-1AF5C3E477F9_32771" relative_location="{0.000000,-0.500000}" position_kind="0"></StickySpot>
        </Hotspots>
        <g>
            <text style="font-family:Helvetica; font-size:36.000000; fill: #000000;" transform="matrix(1.000000,0.000000,-0.000000,1.000000,470.324253,571.120117)" text-anchor="middle">Task
</text>
            <text style="font-family:Helvetica; font-size:36.000000; fill: #000000;" transform="matrix(1.000000,0.000000,-0.000000,1.000000,470.324253,614.120117)" text-anchor="middle">Form</text>
        </g>
    </g>
    <g ID="e52_5A438640-1A36-4CF6-83BD-B3B0E04CA58B" element_type="e52" dclass="DiaElement">
        <path ID="e52_1961A189-09F1-490E-AE60-03F1C3BF8FAD" d=" M 1230.430099 522.013295 C 1192.562137 534.094422 1150.535204 579.639862 1169.966527 618.896424 C 1195.811540 671.106963 1260.031863 671.285881 1311.895449 668.003498 C 1358.391768 665.060550 1402.758539 631.643061 1391.396473 578.588093 C 1385.261501 549.927811 1350.669638 523.845950 1321.448391 518.284446 C 1303.680989 514.900063 1287.734388 515.911698 1269.851832 515.364911 C 1256.749083 514.971960 1242.920351 516.734387 1230.430099 522.013295" dclass="DKDrawableShape" fill-opacity="1.000000" fill="#9BD3DC"></path>
        <path ID="e52_AE656E52-0EF5-4990-8636-A7AA818C0E1A" d=" M 1391.396476 578.588093 C 1388.611037 565.577262 1379.930944 553.121573 1368.582236 542.849689 C 1370.227801 551.024727 1370.730150 559.111139 1364.997384 568.184108 C 1326.465188 644.667269 1228.722788 654.974269 1165.303546 602.439335 C 1165.820912 607.975753 1167.294578 613.493777 1169.968199 618.894752 C 1195.813209 671.105292 1260.033532 671.284214 1311.897121 668.001824 C 1358.393437 665.060549 1402.760208 631.643060 1391.396476 578.588093 Z M 1391.396476 578.588093" dclass="DKDrawableShape" fill-opacity="1.000000" fill="#70C3CF"></path>
        <path ID="contour_275DB3F8-822A-4DCA-8939-6D24AFF1DE83" d=" M 1221.626507 511.644424 C 1183.758546 523.723882 1141.729952 569.269320 1161.162936 608.525883 C 1187.006274 660.736422 1251.228272 660.911999 1303.091858 657.632954 C 1349.588173 654.690010 1393.954943 621.270848 1382.594550 568.215879 C 1376.457905 539.557267 1341.867717 513.473734 1312.644800 507.913905 C 1294.877399 504.529519 1278.930797 505.541156 1261.048240 504.996042 C 1247.943822 504.601416 1234.116758 506.365514 1221.626507 511.644424" dclass="DKDrawableShape" stroke="#2D1F2E" stroke-opacity="1.000000" stroke-width="1.000000" fill="#000000" stroke-linecap="butt" fill-opacity="0.000000" stroke-linejoin="miter"></path>
        <Hotspots>
            <StickySpot id_sticky_spot="F26C97BF-5090-48B1-8739-22AF202D0E19_32772" relative_location="{-0.312976,-0.398871}" position_kind="2"></StickySpot>
            <StickySpot id_sticky_spot="F26C97BF-5090-48B1-8739-22AF202D0E19_32774" relative_location="{0.193501,0.414112}" position_kind="2"></StickySpot>
            <StickySpot id_sticky_spot="F26C97BF-5090-48B1-8739-22AF202D0E19_32773" relative_location="{-0.191208,0.416101}" position_kind="2"></StickySpot>
            <StickySpot id_sticky_spot="F26C97BF-5090-48B1-8739-22AF202D0E19_32768" relative_location="{-0.500000,0.000000}" position_kind="0"></StickySpot>
            <StickySpot id_sticky_spot="F26C97BF-5090-48B1-8739-22AF202D0E19_32769" relative_location="{0.500000,0.000000}" position_kind="0"></StickySpot>
            <StickySpot id_sticky_spot="F26C97BF-5090-48B1-8739-22AF202D0E19_32770" relative_location="{0.000000,0.500000}" position_kind="0"></StickySpot>
            <StickySpot id_sticky_spot="F26C97BF-5090-48B1-8739-22AF202D0E19_32771" relative_location="{0.000000,-0.500000}" position_kind="0"></StickySpot>
        </Hotspots>
        <g>
            <text style="font-family:Helvetica; font-size:36.000000; fill: #000000;" transform="matrix(1.000000,0.000000,-0.000000,1.000000,1270.324253,571.120117)" text-anchor="middle">Tasks </text>
            <text style="font-family:Helvetica; font-size:36.000000; fill: #000000;" transform="matrix(1.000000,0.000000,-0.000000,1.000000,1270.324253,614.120117)" text-anchor="middle">Container</text>
        </g>
    </g>
    <g ID="e52_C769115E-B2B5-44C4-8BFE-72311C234752" element_type="e52" dclass="DiaElement">
        <path ID="e52_46A1D3A7-5C24-4C49-85BE-BF829C7336A6" d=" M 990.430099 884.013295 C 952.562137 896.094422 910.535204 941.639862 929.966527 980.896424 C 955.811540 1033.106963 1020.031863 1033.285881 1071.895449 1030.003498 C 1118.391768 1027.060550 1162.758539 993.643061 1151.396473 940.588093 C 1145.261501 911.927811 1110.669638 885.845950 1081.448391 880.284446 C 1063.680989 876.900063 1047.734388 877.911698 1029.851832 877.364911 C 1016.749083 876.971960 1002.920351 878.734387 990.430099 884.013295" dclass="DKDrawableShape" fill-opacity="1.000000" fill="#9BD3DC"></path>
        <path ID="e52_96E8F76F-92B9-46D6-A474-A5677D98A02A" d=" M 1151.396476 940.588093 C 1148.611037 927.577262 1139.930944 915.121573 1128.582236 904.849689 C 1130.227801 913.024727 1130.730150 921.111139 1124.997384 930.184108 C 1086.465188 1006.667269 988.722788 1016.974269 925.303546 964.439335 C 925.820912 969.975753 927.294578 975.493777 929.968199 980.894752 C 955.813209 1033.105292 1020.033532 1033.284214 1071.897121 1030.001824 C 1118.393437 1027.060549 1162.760208 993.643060 1151.396476 940.588093 Z M 1151.396476 940.588093" dclass="DKDrawableShape" fill-opacity="1.000000" fill="#70C3CF"></path>
        <path ID="contour_88F4E771-96C0-4373-AF99-9CFFE0D7BC52" d=" M 981.626507 873.644424 C 943.758546 885.723882 901.729952 931.269320 921.162936 970.525883 C 947.006274 1022.736422 1011.228272 1022.911999 1063.091858 1019.632954 C 1109.588173 1016.690010 1153.954943 983.270848 1142.594550 930.215879 C 1136.457905 901.557267 1101.867717 875.473734 1072.644800 869.913905 C 1054.877399 866.529519 1038.930797 867.541156 1021.048240 866.996042 C 1007.943822 866.601416 994.116758 868.365514 981.626507 873.644424" dclass="DKDrawableShape" stroke="#2D1F2E" stroke-opacity="1.000000" stroke-width="1.000000" fill="#000000" stroke-linecap="butt" fill-opacity="0.000000" stroke-linejoin="miter"></path>
        <Hotspots>
            <StickySpot id_sticky_spot="D82CD0A5-EFC4-42CC-B922-5821E4B115C8_32772" relative_location="{0.211889,-0.461107}" position_kind="2"></StickySpot>
            <StickySpot id_sticky_spot="D82CD0A5-EFC4-42CC-B922-5821E4B115C8_32768" relative_location="{-0.500000,0.000000}" position_kind="0"></StickySpot>
            <StickySpot id_sticky_spot="D82CD0A5-EFC4-42CC-B922-5821E4B115C8_32769" relative_location="{0.500000,0.000000}" position_kind="0"></StickySpot>
            <StickySpot id_sticky_spot="D82CD0A5-EFC4-42CC-B922-5821E4B115C8_32770" relative_location="{0.000000,0.500000}" position_kind="0"></StickySpot>
            <StickySpot id_sticky_spot="D82CD0A5-EFC4-42CC-B922-5821E4B115C8_32771" relative_location="{0.000000,-0.500000}" position_kind="0"></StickySpot>
        </Hotspots>
        <g>
            <text style="font-family:Helvetica; font-size:36.000000; fill: #000000;" transform="matrix(1.000000,0.000000,-0.000000,1.000000,1030.324253,954.620117)" text-anchor="middle">Task1</text>
        </g>
    </g>
    <g ID="e52_185769FF-3878-4654-BF2F-7456D52E7B6D" element_type="e52" dclass="DiaElement">
        <path ID="e52_C20A1FDC-4407-47DF-BEFE-DF752C890E73" d=" M 1470.430099 878.013295 C 1432.562137 890.094422 1390.535204 935.639862 1409.966527 974.896424 C 1435.811540 1027.106963 1500.031863 1027.285881 1551.895449 1024.003498 C 1598.391768 1021.060550 1642.758539 987.643061 1631.396473 934.588093 C 1625.261501 905.927811 1590.669638 879.845950 1561.448391 874.284446 C 1543.680989 870.900063 1527.734388 871.911698 1509.851832 871.364911 C 1496.749083 870.971960 1482.920351 872.734387 1470.430099 878.013295" dclass="DKDrawableShape" fill-opacity="1.000000" fill="#9BD3DC"></path>
        <path ID="e52_9F9EDE96-A86A-482A-B2EA-D863401D92D7" d=" M 1631.396476 934.588093 C 1628.611037 921.577262 1619.930944 909.121573 1608.582236 898.849689 C 1610.227801 907.024727 1610.730150 915.111139 1604.997384 924.184108 C 1566.465188 1000.667269 1468.722788 1010.974269 1405.303546 958.439335 C 1405.820912 963.975753 1407.294578 969.493777 1409.968199 974.894752 C 1435.813209 1027.105292 1500.033532 1027.284214 1551.897121 1024.001824 C 1598.393437 1021.060549 1642.760208 987.643060 1631.396476 934.588093 Z M 1631.396476 934.588093" dclass="DKDrawableShape" fill-opacity="1.000000" fill="#70C3CF"></path>
        <path ID="contour_D3DC0DF9-E83E-48B6-8046-0D520E8456F6" d=" M 1461.626507 867.644424 C 1423.758546 879.723882 1381.729952 925.269320 1401.162936 964.525883 C 1427.006274 1016.736422 1491.228272 1016.911999 1543.091858 1013.632954 C 1589.588173 1010.690010 1633.954943 977.270848 1622.594550 924.215879 C 1616.457905 895.557267 1581.867717 869.473734 1552.644800 863.913905 C 1534.877399 860.529519 1518.930797 861.541156 1501.048240 860.996042 C 1487.943822 860.601416 1474.116758 862.365514 1461.626507 867.644424" dclass="DKDrawableShape" stroke="#2D1F2E" stroke-opacity="1.000000" stroke-width="1.000000" fill="#000000" stroke-linecap="butt" fill-opacity="0.000000" stroke-linejoin="miter"></path>
        <Hotspots>
            <StickySpot id_sticky_spot="4C82C2A6-5587-41CB-9DCD-BBB606E57B25_32772" relative_location="{-0.216621,-0.463592}" position_kind="2"></StickySpot>
            <StickySpot id_sticky_spot="4C82C2A6-5587-41CB-9DCD-BBB606E57B25_32768" relative_location="{-0.500000,0.000000}" position_kind="0"></StickySpot>
            <StickySpot id_sticky_spot="4C82C2A6-5587-41CB-9DCD-BBB606E57B25_32769" relative_location="{0.500000,0.000000}" position_kind="0"></StickySpot>
            <StickySpot id_sticky_spot="4C82C2A6-5587-41CB-9DCD-BBB606E57B25_32770" relative_location="{0.000000,0.500000}" position_kind="0"></StickySpot>
            <StickySpot id_sticky_spot="4C82C2A6-5587-41CB-9DCD-BBB606E57B25_32771" relative_location="{0.000000,-0.500000}" position_kind="0"></StickySpot>
        </Hotspots>
        <g>
            <text style="font-family:Helvetica; font-size:36.000000; fill: #000000;" transform="matrix(1.000000,0.000000,-0.000000,1.000000,1510.324253,948.620117)" text-anchor="middle">Task2</text>
        </g>
    </g>
    <defs></defs>
    <g dclass="DiaConnector">
        <g enabled="1" ID="FA3D9C9D-EDE6-4625-87D7-B2FA8F51EB85" dclass="DiaConnectorStyle">
            <path d=" M 982.740952 329.136171 L 1163.095388 488.449256" dclass="DiaConnectorStylizedPath" fill="none" stroke="#2D1F2E" stroke-opacity="1.000000" stroke-width="1.000000" stroke-linecap="round" stroke-linejoin="round"></path>
            <g dclass="DiaConnectorArrow">
                <path d=" M 1159.605490 499.087361 C 1160.355943 496.789276 1165.971067 492.479819 1168.098077 489.921696 C 1170.974680 486.461622 1173.476875 482.992629 1176.120382 479.571155 C 1178.478551 486.037253 1182.491152 494.130163 1186.827199 499.398581 C 1192.290441 506.033037 1195.703196 513.939465 1202.217953 519.658210 C 1199.469304 517.444176 1184.099791 507.495743 1179.122766 505.571353 C 1172.982816 503.196808 1165.121339 501.777159 1159.605490 499.087361 Z M 1159.605490 499.087361" dclass="DKDrawableShape" fill-opacity="1.000000" fill="#9BD3DC"></path>
                <path d=" M 1173.343235 503.666194 C 1175.346237 504.256152 1177.312761 504.869620 1179.122677 505.569477 C 1184.099702 507.493867 1200.331402 520.799928 1202.217865 519.656334 C 1204.108162 518.514329 1192.290352 506.031161 1186.827110 499.396705 C 1182.491063 494.128287 1178.478463 486.035377 1176.120294 479.569279 C 1175.420634 480.473987 1174.731318 481.378843 1174.045120 482.290049 C 1174.777535 489.689571 1174.934908 497.109693 1173.343235 503.666194 Z M 1173.343235 503.666194" dclass="DKDrawableShape" fill-opacity="1.000000" fill="#70C3CF"></path>
                <path d=" M 1153.845478 500.663813 C 1154.596823 498.364718 1160.765382 492.879362 1162.892304 490.319363 C 1165.767122 486.861308 1170.565715 480.421104 1173.210114 476.998621 C 1175.569264 483.465584 1178.323701 493.352370 1182.660817 498.623530 C 1188.123079 505.257120 1191.554968 512.772347 1198.072578 518.491815 C 1195.319203 516.277202 1178.894909 507.892400 1173.917884 505.968010 C 1167.777131 503.596351 1159.359366 503.351878 1153.845478 500.663813 Z M 1153.845478 500.663813" dclass="DKDrawableShape" stroke="#2D1F2E" stroke-opacity="1.000000" stroke-width="1.000000" fill="#000000" stroke-linecap="round" fill-opacity="0.000000" stroke-linejoin="round"></path>
            </g>
        </g>
        <ConnectorEndPoint id_target_sticky_spot="F0C6ED63-F0B1-4BA0-9A30-9E7E06647014_32773" is_start="1" location="{982.74095172194825, 329.13617053187915}"></ConnectorEndPoint>
        <ConnectorEndPoint id_target_sticky_spot="F26C97BF-5090-48B1-8739-22AF202D0E19_32772" is_start="0" location="{1200.5690485758248, 521.55098941947017}"></ConnectorEndPoint>
        <text style="font-family:Helvetica; font-size:14.000000; fill: #000000;">
            <textPath xlink:href="#20961E5E-08C1-4DE4-94AE-CE1D6905850F" baseline-shift="0.000000" startOffset="0.000000%"></textPath>
        </text>
    </g>
    <g dclass="DiaConnector">
        <g enabled="1" ID="301F68A1-A63D-4D77-A29A-86B42F04FD7A" dclass="DiaConnectorStyle">
            <path d=" M 1229.420894 655.390773 L 1112.559351 831.656933" dclass="DiaConnectorStylizedPath" fill="none" stroke="#2D1F2E" stroke-opacity="1.000000" stroke-width="1.000000" stroke-linecap="round" stroke-linejoin="round"></path>
            <g dclass="DiaConnectorArrow">
                <path d=" M 1101.542139 829.664521 C 1103.921645 830.091515 1108.962969 835.060023 1111.789513 836.814679 C 1115.612599 839.187644 1119.392985 841.188539 1123.145754 843.335941 C 1117.065789 846.561681 1109.602218 851.650026 1104.980774 856.669966 C 1099.161447 862.994398 1091.800018 867.462940 1087.032419 874.702837 C 1088.847046 871.675602 1096.585272 855.083040 1097.806290 849.888507 C 1099.313109 843.480158 1099.637164 835.498103 1101.542139 829.664521 Z M 1101.542139 829.664521" dclass="DKDrawableShape" fill-opacity="1.000000" fill="#9BD3DC"></path>
                <path d=" M 1098.897800 843.901755 C 1098.589158 845.966895 1098.252208 847.999141 1097.808136 849.888162 C 1096.587118 855.082694 1085.641896 872.991392 1087.034265 874.702491 C 1088.425587 876.417606 1099.163293 862.994052 1104.982620 856.669620 C 1109.604064 851.649680 1117.067635 846.561335 1123.147600 843.335595 C 1122.155200 842.767122 1121.164077 842.208914 1120.167093 841.654669 C 1112.938813 843.398610 1105.610978 844.575817 1098.897800 843.901755 Z M 1098.897800 843.901755" dclass="DKDrawableShape" fill-opacity="1.000000" fill="#70C3CF"></path>
                <path d=" M 1099.187863 824.176322 C 1101.568492 824.604060 1107.850700 829.958881 1110.679090 831.713191 C 1114.499930 834.084668 1121.539331 837.951134 1125.293223 840.099280 C 1119.212535 843.326111 1109.798985 847.415184 1105.174972 852.436560 C 1099.356368 858.759902 1092.385049 863.193549 1087.617127 870.436371 C 1089.431677 867.404376 1095.475972 849.982297 1096.696990 844.787764 C 1098.200840 838.379016 1097.284334 830.007723 1099.187863 824.176322 Z M 1099.187863 824.176322" dclass="DKDrawableShape" stroke="#2D1F2E" stroke-opacity="1.000000" stroke-width="1.000000" fill="#000000" stroke-linecap="round" fill-opacity="0.000000" stroke-linejoin="round"></path>
            </g>
        </g>
        <ConnectorEndPoint id_target_sticky_spot="F26C97BF-5090-48B1-8739-22AF202D0E19_32773" is_start="1" location="{1229.4208940937226, 655.39077265127719}"></ConnectorEndPoint>
        <ConnectorEndPoint id_target_sticky_spot="D82CD0A5-EFC4-42CC-B922-5821E4B115C8_32772" is_start="0" location="{1084.930695355227, 873.33015574850788}"></ConnectorEndPoint>
        <text style="font-family:Helvetica; font-size:14.000000; fill: #000000;">
            <textPath xlink:href="#30F0CC97-5B62-4B14-A302-7EA118A4B934" baseline-shift="0.000000" startOffset="0.000000%"></textPath>
        </text>
    </g>
    <g dclass="DiaConnector">
        <g enabled="1" ID="B9671A60-1D44-4C88-916D-B1B2AB194B0D" dclass="DiaConnectorStyle">
            <path d=" M 1320.573761 655.063990 L 1435.449763 825.463394" dclass="DiaConnectorStylizedPath" fill="none" stroke="#2D1F2E" stroke-opacity="1.000000" stroke-width="1.000000" stroke-linecap="round" stroke-linejoin="round"></path>
            <g dclass="DiaConnectorArrow">
                <path d=" M 1429.397823 834.882665 C 1430.701849 832.847011 1437.219946 830.087401 1439.921696 828.146083 C 1443.575692 825.520200 1446.869546 822.791570 1450.288229 820.144455 C 1450.945296 826.995706 1452.794741 835.837408 1455.667239 842.026616 C 1459.287358 849.821342 1460.603094 858.331768 1465.471147 865.504505 C 1463.367296 862.670633 1450.992021 849.178198 1446.658537 846.064523 C 1441.312624 842.222822 1434.060429 838.872616 1429.397823 834.882665 Z M 1429.397823 834.882665" dclass="DKDrawableShape" fill-opacity="1.000000" fill="#9BD3DC"></path>
                <path d=" M 1441.543481 842.767735 C 1443.333871 843.842245 1445.083044 844.930340 1446.658923 846.062685 C 1450.992406 849.176360 1463.358177 866.135341 1465.471533 865.502667 C 1467.588200 864.872495 1459.287744 849.819504 1455.667625 842.024778 C 1452.795126 835.835570 1450.945682 826.993868 1450.288615 820.142617 C 1449.384004 820.842402 1448.489367 821.544930 1447.596153 822.254388 C 1446.445032 829.600427 1444.732155 836.821856 1441.543481 842.767735 Z M 1441.543481 842.767735" dclass="DKDrawableShape" fill-opacity="1.000000" fill="#70C3CF"></path>
                <path d=" M 1423.426485 834.960604 C 1424.731629 832.924197 1432.080977 829.165561 1434.783113 827.222405 C 1438.434875 824.598029 1444.698265 819.570836 1448.118065 816.922968 C 1448.775863 823.775303 1448.956616 834.037017 1451.829460 840.229148 C 1455.448848 848.022789 1456.881439 856.159385 1461.752073 863.333539 C 1459.643793 860.497918 1445.854555 848.253767 1441.521071 845.140092 C 1436.173655 841.300982 1428.087629 838.948385 1423.426485 834.960604 Z M 1423.426485 834.960604" dclass="DKDrawableShape" stroke="#2D1F2E" stroke-opacity="1.000000" stroke-width="1.000000" fill="#000000" stroke-linecap="round" fill-opacity="0.000000" stroke-linejoin="round"></path>
            </g>
        </g>
        <ConnectorEndPoint id_target_sticky_spot="F26C97BF-5090-48B1-8739-22AF202D0E19_32774" is_start="1" location="{1320.5737605648308, 655.06398996413623}"></ConnectorEndPoint>
        <ConnectorEndPoint id_target_sticky_spot="4C82C2A6-5587-41CB-9DCD-BBB606E57B25_32772" is_start="0" location="{1463.3994005675831, 866.92202263488502}"></ConnectorEndPoint>
        <text style="font-family:Helvetica; font-size:14.000000; fill: #000000;">
            <textPath xlink:href="#6D59EA94-2B2A-4082-85AB-9E41E8BE9387" baseline-shift="0.000000" startOffset="0.000000%"></textPath>
        </text>
    </g>
    <g dclass="DiaConnector">
        <g enabled="1" ID="070C4DD4-14B0-4DF4-A393-EDB0EFFFC873" dclass="DiaConnectorStyle">
            <path d=" M 835.801742 326.096523 L 595.966392 499.432071" dclass="DiaConnectorStylizedPath" fill="none" stroke="#2D1F2E" stroke-opacity="1.000000" stroke-width="1.000000" stroke-linecap="round" stroke-linejoin="round"></path>
            <g dclass="DiaConnectorArrow">
                <path d=" M 586.354601 493.690807 C 588.431734 494.927693 591.402629 501.352241 593.431099 503.989186 C 596.174852 507.555525 599.009541 510.758560 601.766834 514.089018 C 594.940681 514.969363 586.164056 517.106421 580.071906 520.179408 C 572.399497 524.052023 563.936552 525.644844 556.926533 530.744426 C 559.690224 528.549196 572.771533 515.740113 575.742102 511.307306 C 579.407262 505.838846 582.518966 498.481163 586.354601 493.690807 Z M 586.354601 493.690807" dclass="DKDrawableShape" fill-opacity="1.000000" fill="#9BD3DC"></path>
                <path d=" M 578.870174 506.087367 C 577.854676 507.911875 576.824255 509.695633 575.743951 511.307632 C 572.773383 515.740439 556.227065 528.653172 556.928382 530.744751 C 557.627308 532.839721 572.401346 524.052349 580.073756 520.179734 C 586.165906 517.106747 594.942530 514.969689 601.768683 514.089343 C 601.039744 513.208056 600.308389 512.336827 599.570153 511.467245 C 592.190456 510.556517 584.916965 509.080265 578.870174 506.087367 Z M 578.870174 506.087367" dclass="DKDrawableShape" fill-opacity="1.000000" fill="#70C3CF"></path>
                <path d=" M 586.081795 487.725195 C 588.159718 488.963174 592.156238 496.185921 594.186558 498.823191 C 596.928732 502.387347 602.157687 508.483309 604.915769 511.814859 C 598.088555 512.695971 587.838209 513.211576 581.743149 516.285004 C 574.071800 520.156853 565.986301 521.854264 558.974950 526.956471 C 561.740244 524.756759 573.527782 510.575211 576.498350 506.142404 C 580.160871 500.672526 582.248281 492.514019 586.081795 487.725195 Z M 586.081795 487.725195" dclass="DKDrawableShape" stroke="#2D1F2E" stroke-opacity="1.000000" stroke-width="1.000000" fill="#000000" stroke-linecap="round" fill-opacity="0.000000" stroke-linejoin="round"></path>
            </g>
        </g>
        <ConnectorEndPoint id_target_sticky_spot="F0C6ED63-F0B1-4BA0-9A30-9E7E06647014_32774" is_start="1" location="{835.80174200460806, 326.09652320915848}"></ConnectorEndPoint>
        <ConnectorEndPoint id_target_sticky_spot="986C1BAA-6F60-49F3-A3B0-1AF5C3E477F9_32772" is_start="0" location="{555.4421456539402, 528.72004966259556}"></ConnectorEndPoint>
        <text style="font-family:Helvetica; font-size:14.000000; fill: #000000;">
            <textPath xlink:href="#00F069B2-2240-41C5-BF96-2D70B2DCA969" baseline-shift="0.000000" startOffset="0.000000%"></textPath>
        </text>
    </g>
    <g ID="e52_9248DBD6-7FDC-4576-849F-B0166A1CE590" element_type="e52" dclass="DiaElement">
        <path ID="e52_D695B3A4-3146-4342-96BC-5F4BEA2DD0C2" d=" M 434.430099 880.013295 C 396.562137 892.094422 354.535204 937.639862 373.966527 976.896424 C 399.811540 1029.106963 464.031863 1029.285881 515.895449 1026.003498 C 562.391768 1023.060550 606.758539 989.643061 595.396473 936.588093 C 589.261501 907.927811 554.669638 881.845950 525.448391 876.284446 C 507.680989 872.900063 491.734388 873.911698 473.851832 873.364911 C 460.749083 872.971960 446.920351 874.734387 434.430099 880.013295" dclass="DKDrawableShape" fill-opacity="1.000000" fill="#9BD3DB"></path>
        <path ID="e52_F279A5C0-51A3-438C-A190-E22517B416D7" d=" M 595.396476 936.588093 C 592.611037 923.577262 583.930944 911.121573 572.582236 900.849689 C 574.227801 909.024727 574.730150 917.111139 568.997384 926.184108 C 530.465188 1002.667269 432.722788 1012.974269 369.303546 960.439335 C 369.820912 965.975753 371.294578 971.493777 373.968199 976.894752 C 399.813209 1029.105292 464.033532 1029.284214 515.897121 1026.001824 C 562.393437 1023.060549 606.760208 989.643060 595.396476 936.588093 Z M 595.396476 936.588093" dclass="DKDrawableShape" fill-opacity="1.000000" fill="#70C3CF"></path>
        <path ID="contour_F8E0F1CC-D091-46F8-8F43-E1F2C149A5B5" d=" M 425.626507 869.644424 C 387.758546 881.723882 345.729952 927.269320 365.162936 966.525883 C 391.006274 1018.736422 455.228272 1018.911999 507.091858 1015.632954 C 553.588173 1012.690010 597.954943 979.270848 586.594550 926.215879 C 580.457905 897.557267 545.867717 871.473734 516.644800 865.913905 C 498.877399 862.529519 482.930797 863.541156 465.048240 862.996042 C 451.943822 862.601416 438.116758 864.365514 425.626507 869.644424" dclass="DKDrawableShape" stroke="#2C1F2E" stroke-opacity="1.000000" stroke-width="1.000000" fill="#000000" stroke-linecap="butt" fill-opacity="0.000000" stroke-linejoin="miter"></path>
        <Hotspots>
            <StickySpot id_sticky_spot="986C1BAA-6F60-49F3-A3B0-1AF5C3E477F9_32772" relative_location="{-0.003860,-0.498415}" position_kind="2"></StickySpot>
            <StickySpot id_sticky_spot="986C1BAA-6F60-49F3-A3B0-1AF5C3E477F9_32768" relative_location="{-0.500000,0.000000}" position_kind="0"></StickySpot>
            <StickySpot id_sticky_spot="986C1BAA-6F60-49F3-A3B0-1AF5C3E477F9_32769" relative_location="{0.500000,0.000000}" position_kind="0"></StickySpot>
            <StickySpot id_sticky_spot="986C1BAA-6F60-49F3-A3B0-1AF5C3E477F9_32770" relative_location="{0.000000,0.500000}" position_kind="0"></StickySpot>
            <StickySpot id_sticky_spot="986C1BAA-6F60-49F3-A3B0-1AF5C3E477F9_32771" relative_location="{0.000000,-0.500000}" position_kind="0"></StickySpot>
        </Hotspots>
        <g>
            <text style="font-family:Helvetica; font-size:36.000000; fill: #000000;" transform="matrix(1.000000,0.000000,-0.000000,1.000000,474.324253,929.120117)" text-anchor="middle">Add
</text>
            <text style="font-family:Helvetica; font-size:36.000000; fill: #000000;" transform="matrix(1.000000,0.000000,-0.000000,1.000000,474.324253,972.120117)" text-anchor="middle">Task</text>
        </g>
    </g>
    <g dclass="DiaConnector">
        <g enabled="1" ID="0E1F25B0-8449-4D60-AC94-A0BED9E1BD04" dclass="DiaConnectorStyle">
            <path d=" M 475.526978 658.770713 L 477.252516 813.206317" dclass="DiaConnectorStylizedPath" fill="none" stroke="#2D1F2E" stroke-opacity="1.000000" stroke-width="1.000000" stroke-linecap="round" stroke-linejoin="round"></path>
            <g dclass="DiaConnectorArrow">
                <path d=" M 467.019231 817.748144 C 469.227557 816.764443 476.189495 818.042116 479.513576 817.905540 C 484.009433 817.720546 488.260919 817.251752 492.571874 816.919671 C 489.354674 823.004160 486.039408 831.406847 485.036826 838.156097 C 483.776238 846.657505 480.197230 854.490078 480.321027 863.157880 C 480.121304 859.634084 477.200126 841.560347 475.291649 836.577199 C 472.937613 830.429356 468.720963 823.644220 467.019231 817.748144 Z M 467.019231 817.748144" dclass="DKDrawableShape" fill-opacity="1.000000" fill="#9BD3DC"></path>
                <path d=" M 472.830928 831.011459 C 473.735907 832.893235 474.598988 834.763703 475.292981 836.575875 C 477.201459 841.559024 478.209157 862.523372 480.322360 863.156556 C 482.436954 863.793651 483.777571 846.656181 485.038158 838.154773 C 486.040740 831.405524 489.356007 823.002836 492.573206 816.918348 C 491.432857 817.005665 490.299333 817.100757 489.163186 817.202420 C 484.163507 822.706288 478.763052 827.797267 472.830928 831.011459 Z M 472.830928 831.011459" dclass="DKDrawableShape" fill-opacity="1.000000" fill="#70C3CF"></path>
                <path d=" M 461.988135 814.530844 C 464.197809 813.547128 472.403304 814.447182 475.728718 814.309283 C 480.221880 814.124319 488.217522 813.367720 492.529824 813.035624 C 489.312639 819.121421 483.822833 827.793068 482.818933 834.544949 C 481.558330 843.045048 478.282432 850.629572 478.407605 859.299975 C 478.205143 855.772285 473.416615 837.964075 471.508138 832.980927 C 469.151422 826.834423 463.689838 820.424304 461.988135 814.530844 Z M 461.988135 814.530844" dclass="DKDrawableShape" stroke="#2D1F2E" stroke-opacity="1.000000" stroke-width="1.000000" fill="#000000" stroke-linecap="round" fill-opacity="0.000000" stroke-linejoin="round"></path>
            </g>
        </g>
        <ConnectorEndPoint id_target_sticky_spot="986C1BAA-6F60-49F3-A3B0-1AF5C3E477F9_32773" is_start="1" location="{475.52697813778849, 658.77071267165081}"></ConnectorEndPoint>
        <ConnectorEndPoint id_target_sticky_spot="986C1BAA-6F60-49F3-A3B0-1AF5C3E477F9_32772" is_start="0" location="{477.81113999813698, 863.20319917284962}"></ConnectorEndPoint>
        <text style="font-family:Helvetica; font-size:14.000000; fill: #000000;">
            <textPath xlink:href="#143F1465-6F37-4B3B-B0AE-3C0775D00783" baseline-shift="0.000000" startOffset="0.000000%"></textPath>
        </text>
    </g>
    <g ID="e52_ADCB2695-0D5C-4D29-8603-44290A761776" element_type="e52" dclass="DiaElement">
        <path ID="e52_CED3A298-67CF-417D-B21A-77AC1E5FC496" d=" M 1008.070581 177.801656 C 985.283331 187.321715 959.993396 223.212010 971.686300 254.146601 C 987.238676 295.289066 1025.883603 295.430056 1057.092796 292.843503 C 1085.072208 290.524429 1111.770152 264.191089 1104.932967 222.383204 C 1101.241214 199.798595 1080.425374 179.245808 1062.841331 174.863284 C 1052.149701 172.196354 1042.553747 172.993533 1031.792822 172.562659 C 1023.908172 172.253010 1015.586658 173.641821 1008.070581 177.801656" dclass="DKDrawableShape" fill-opacity="1.000000" fill="#CC99CC"></path>
        <path ID="e52_1D9D63DF-9F2B-4969-AE7B-F12E79A13E92" d=" M 1104.932969 222.383204 C 1103.256816 212.130530 1098.033523 202.315314 1091.204376 194.220959 C 1092.194604 200.662976 1092.496896 207.035156 1089.047173 214.184753 C 1065.860215 274.454304 1007.043197 282.576331 968.880326 241.178239 C 969.191654 245.540996 970.078441 249.889258 971.687306 254.145284 C 987.239681 295.287750 1025.884607 295.428743 1057.093802 292.842184 C 1085.073212 290.524427 1111.771156 264.191088 1104.932969 222.383204 Z M 1104.932969 222.383204" dclass="DKDrawableShape" fill-opacity="1.000000" fill="#B27BB6"></path>
        <path ID="contour_DE1F5A1C-AC9D-44DF-8CA5-776FDAE018ED" d=" M 1002.772972 169.630876 C 979.985722 179.149618 954.694788 215.039912 966.388692 245.974504 C 981.940060 287.116969 1020.585994 287.255325 1051.795188 284.671403 C 1079.774597 282.352331 1106.472541 256.017673 1099.636362 214.209789 C 1095.943603 191.626495 1075.128770 171.072391 1057.543722 166.691186 C 1046.852092 164.024254 1037.256138 164.821434 1026.495213 164.391879 C 1018.609559 164.080909 1010.289048 165.471037 1002.772972 169.630876" dclass="DKDrawableShape" stroke="#2C1F2E" stroke-opacity="1.000000" stroke-width="1.000000" fill="#000000" stroke-linecap="butt" fill-opacity="0.000000" stroke-linejoin="miter"></path>
        <Hotspots>
            <StickySpot id_sticky_spot="ACD6D68D-B635-40DE-A21E-65F96E3FD903_32768" relative_location="{-0.500000,0.000000}" position_kind="0"></StickySpot>
            <StickySpot id_sticky_spot="ACD6D68D-B635-40DE-A21E-65F96E3FD903_32769" relative_location="{0.500000,0.000000}" position_kind="0"></StickySpot>
            <StickySpot id_sticky_spot="ACD6D68D-B635-40DE-A21E-65F96E3FD903_32770" relative_location="{0.000000,0.500000}" position_kind="0"></StickySpot>
            <StickySpot id_sticky_spot="ACD6D68D-B635-40DE-A21E-65F96E3FD903_32771" relative_location="{0.000000,-0.500000}" position_kind="0"></StickySpot>
        </Hotspots>
        <g>
            <text style="font-family:Helvetica; font-size:52.000000; fill: #000000;" transform="matrix(1.000000,0.000000,-0.000000,1.000000,1032.077104,240.469475)" text-anchor="middle">CD</text>
        </g>
    </g>
    <g ID="e52_CAA1148C-2BA2-48AF-A2CA-011236708BB6" element_type="e52" dclass="DiaElement">
        <path ID="e52_D9C4A3FD-6BC5-4D35-9437-01F149228954" d=" M 328.070581 457.801656 C 305.283331 467.321715 279.993396 503.212010 291.686300 534.146601 C 307.238676 575.289066 345.883603 575.430056 377.092796 572.843503 C 405.072208 570.524429 431.770152 544.191089 424.932967 502.383204 C 421.241214 479.798595 400.425374 459.245808 382.841331 454.863284 C 372.149701 452.196354 362.553747 452.993533 351.792822 452.562659 C 343.908172 452.253010 335.586658 453.641821 328.070581 457.801656" dclass="DKDrawableShape" fill-opacity="1.000000" fill="#CC99CC"></path>
        <path ID="e52_7BA8ACB0-538C-4C37-91B0-2E06D75C2971" d=" M 424.932969 502.383204 C 423.256816 492.130530 418.033523 482.315314 411.204376 474.220959 C 412.194604 480.662976 412.496896 487.035156 409.047173 494.184753 C 385.860215 554.454304 327.043197 562.576331 288.880326 521.178239 C 289.191654 525.540996 290.078441 529.889258 291.687306 534.145284 C 307.239681 575.287750 345.884607 575.428743 377.093802 572.842184 C 405.073212 570.524427 431.771156 544.191088 424.932969 502.383204 Z M 424.932969 502.383204" dclass="DKDrawableShape" fill-opacity="1.000000" fill="#B27BB6"></path>
        <path ID="contour_127ECD9A-8D69-49B9-807B-FE1DF7985886" d=" M 322.772972 449.630876 C 299.985722 459.149618 274.694788 495.039912 286.388692 525.974504 C 301.940060 567.116969 340.585994 567.255325 371.795188 564.671403 C 399.774597 562.352331 426.472541 536.017673 419.636362 494.209789 C 415.943603 471.626495 395.128770 451.072391 377.543722 446.691186 C 366.852092 444.024254 357.256138 444.821434 346.495213 444.391879 C 338.609559 444.080909 330.289048 445.471037 322.772972 449.630876" dclass="DKDrawableShape" stroke="#2C1F2E" stroke-opacity="1.000000" stroke-width="1.000000" fill="#000000" stroke-linecap="butt" fill-opacity="0.000000" stroke-linejoin="miter"></path>
        <Hotspots>
            <StickySpot id_sticky_spot="ACD6D68D-B635-40DE-A21E-65F96E3FD903_32768" relative_location="{-0.500000,0.000000}" position_kind="0"></StickySpot>
            <StickySpot id_sticky_spot="ACD6D68D-B635-40DE-A21E-65F96E3FD903_32769" relative_location="{0.500000,0.000000}" position_kind="0"></StickySpot>
            <StickySpot id_sticky_spot="ACD6D68D-B635-40DE-A21E-65F96E3FD903_32770" relative_location="{0.000000,0.500000}" position_kind="0"></StickySpot>
            <StickySpot id_sticky_spot="ACD6D68D-B635-40DE-A21E-65F96E3FD903_32771" relative_location="{0.000000,-0.500000}" position_kind="0"></StickySpot>
        </Hotspots>
        <g>
            <text style="font-family:Helvetica; font-size:52.000000; fill: #000000;" transform="matrix(1.000000,0.000000,-0.000000,1.000000,352.077104,520.469475)" text-anchor="middle">CD</text>
        </g>
    </g>
    <g ID="e52_C9148881-9549-4D9D-A2DD-3BE46D03B538" element_type="e52" dclass="DiaElement">
        <path ID="e52_EE85184A-CAFB-41CF-8551-F3DE0BBA261B" d=" M 1368.070581 457.801656 C 1345.283331 467.321715 1319.993396 503.212010 1331.686300 534.146601 C 1347.238676 575.289066 1385.883603 575.430056 1417.092796 572.843503 C 1445.072208 570.524429 1471.770152 544.191089 1464.932967 502.383204 C 1461.241214 479.798595 1440.425374 459.245808 1422.841331 454.863284 C 1412.149701 452.196354 1402.553747 452.993533 1391.792822 452.562659 C 1383.908172 452.253010 1375.586658 453.641821 1368.070581 457.801656" dclass="DKDrawableShape" fill-opacity="1.000000" fill="#CC99CC"></path>
        <path ID="e52_F0F5A25F-E274-4AAF-B018-6FAD65F80572" d=" M 1464.932969 502.383204 C 1463.256816 492.130530 1458.033523 482.315314 1451.204376 474.220959 C 1452.194604 480.662976 1452.496896 487.035156 1449.047173 494.184753 C 1425.860215 554.454304 1367.043197 562.576331 1328.880326 521.178239 C 1329.191654 525.540996 1330.078441 529.889258 1331.687306 534.145284 C 1347.239681 575.287750 1385.884607 575.428743 1417.093802 572.842184 C 1445.073212 570.524427 1471.771156 544.191088 1464.932969 502.383204 Z M 1464.932969 502.383204" dclass="DKDrawableShape" fill-opacity="1.000000" fill="#B27BB6"></path>
        <path ID="contour_82234CF1-4C32-44C5-9EB0-B8BCC59BB7DF" d=" M 1362.772972 449.630876 C 1339.985722 459.149618 1314.694788 495.039912 1326.388692 525.974504 C 1341.940060 567.116969 1380.585994 567.255325 1411.795188 564.671403 C 1439.774597 562.352331 1466.472541 536.017673 1459.636362 494.209789 C 1455.943603 471.626495 1435.128770 451.072391 1417.543722 446.691186 C 1406.852092 444.024254 1397.256138 444.821434 1386.495213 444.391879 C 1378.609559 444.080909 1370.289048 445.471037 1362.772972 449.630876" dclass="DKDrawableShape" stroke="#2C1F2E" stroke-opacity="1.000000" stroke-width="1.000000" fill="#000000" stroke-linecap="butt" fill-opacity="0.000000" stroke-linejoin="miter"></path>
        <Hotspots>
            <StickySpot id_sticky_spot="ACD6D68D-B635-40DE-A21E-65F96E3FD903_32768" relative_location="{-0.500000,0.000000}" position_kind="0"></StickySpot>
            <StickySpot id_sticky_spot="ACD6D68D-B635-40DE-A21E-65F96E3FD903_32769" relative_location="{0.500000,0.000000}" position_kind="0"></StickySpot>
            <StickySpot id_sticky_spot="ACD6D68D-B635-40DE-A21E-65F96E3FD903_32770" relative_location="{0.000000,0.500000}" position_kind="0"></StickySpot>
            <StickySpot id_sticky_spot="ACD6D68D-B635-40DE-A21E-65F96E3FD903_32771" relative_location="{0.000000,-0.500000}" position_kind="0"></StickySpot>
        </Hotspots>
        <g>
            <text style="font-family:Helvetica; font-size:52.000000; fill: #000000;" transform="matrix(1.000000,0.000000,-0.000000,1.000000,1392.077104,520.469475)" text-anchor="middle">CD</text>
        </g>
    </g>
</svg>