<?xml version="1.0" encoding="UTF-8"?>
<!DOCTYPE svg PUBLIC "-//W3C//DTD SVG 1.1//EN" "http://www.w3.org/Graphics/SVG/1.1/DTD/svg11.dtd">

<svg x="0px" height="1080.000000px" xmlns:xlink="http://www.w3.org/1999/xlink" y="0px" xmlns="http://www.w3.org/2000/svg" width="1920.000000px" version="1.1" viewBox="0 0 1920.000000 1080.000000">
    <defs>
        <linearGradient x2="434.726593" id="939D59D4-1A0B-4DD1-8F17-720EF6BD7793" x1="434.726593" gradientUnits="userSpaceOnUse" y2="229.762222" y1="685.663330">
            <stop offset="0.00%" stop-color="#637E4E" stop-opacity="1.000000"></stop>
            <stop offset="100.00%" stop-color="#CEDCC2" stop-opacity="1.000000"></stop>
        </linearGradient>
        <linearGradient x2="1081.278198" id="0A83B77E-625D-485E-8A61-582FB6023FAF" x1="1081.278198" gradientUnits="userSpaceOnUse" y2="301.538116" y1="397.870819">
            <stop offset="0.00%" stop-color="#BCAF71" stop-opacity="1.000000"></stop>
            <stop offset="100.00%" stop-color="#FDF6D5" stop-opacity="1.000000"></stop>
        </linearGradient>
        <linearGradient x2="1634.725830" id="64F33BAF-67A6-4EF0-B762-4323795F191C" x1="1634.725830" gradientUnits="userSpaceOnUse" y2="301.538116" y1="397.870819">
            <stop offset="0.00%" stop-color="#BCAF71" stop-opacity="1.000000"></stop>
            <stop offset="100.00%" stop-color="#FDF6D5" stop-opacity="1.000000"></stop>
        </linearGradient>
        <linearGradient x2="1274.725830" id="C8D53B17-5B3A-4F1E-BBCD-90604B0CB22A" x1="1274.725830" gradientUnits="userSpaceOnUse" y2="578.492798" y1="674.825500">
            <stop offset="0.00%" stop-color="#BCAF71" stop-opacity="1.000000"></stop>
            <stop offset="100.00%" stop-color="#FDF6D5" stop-opacity="1.000000"></stop>
        </linearGradient>
        <linearGradient x2="1034.725830" id="E657F48B-58BC-431E-B354-7EA14CA4DBD1" x1="1034.725830" gradientUnits="userSpaceOnUse" y2="698.492798" y1="794.825500">
            <stop offset="0.00%" stop-color="#BCAF71" stop-opacity="1.000000"></stop>
            <stop offset="100.00%" stop-color="#FDF6D5" stop-opacity="1.000000"></stop>
        </linearGradient>
        <linearGradient x2="1032.905273" id="19AC1E09-5084-4195-B776-6035C6B653F7" x1="1004.707397" gradientUnits="userSpaceOnUse" y2="360.851562" y1="365.952271">
            <stop offset="0.00%" stop-color="#BCAF71" stop-opacity="1.000000"></stop>
            <stop offset="100.00%" stop-color="#FDF6D5" stop-opacity="1.000000"></stop>
        </linearGradient>
        <linearGradient x2="990.207947" id="3FBDF108-94E6-4265-B9EF-56BFCD47B3B8" x1="964.240845" gradientUnits="userSpaceOnUse" y2="728.281189" y1="716.163208">
            <stop offset="0.00%" stop-color="#BCAF71" stop-opacity="1.000000"></stop>
            <stop offset="100.00%" stop-color="#FDF6D5" stop-opacity="1.000000"></stop>
        </linearGradient>
        <linearGradient x2="1585.568115" id="575C0F41-4B52-4002-B598-7BE722564257" x1="1556.912720" gradientUnits="userSpaceOnUse" y2="352.101410" y1="352.101410">
            <stop offset="0.00%" stop-color="#BCAF71" stop-opacity="1.000000"></stop>
            <stop offset="100.00%" stop-color="#FDF6D5" stop-opacity="1.000000"></stop>
        </linearGradient>
        <linearGradient x2="1246.646484" id="175A781A-0356-4626-AE63-4489E5ADD834" x1="1230.237671" gradientUnits="userSpaceOnUse" y2="588.855835" y1="565.363586">
            <stop offset="0.00%" stop-color="#BCAF71" stop-opacity="1.000000"></stop>
            <stop offset="100.00%" stop-color="#FDF6D5" stop-opacity="1.000000"></stop>
        </linearGradient>
    </defs>
    <g ID="e12_939A50E4-0B51-4C7D-BFA2-5301ECCD5940" dclass="DiaElement" element_type="e12">
        <path ID="contour_35B30BDB-EE0E-47FA-9CCA-10187C7A4C7C" d=" M 434.727935 709.678728 C 302.039907 709.678728 194.102997 601.734328 194.102997 469.056029 C 194.102997 336.382206 302.039907 228.433329 434.727935 228.433329 C 567.407009 228.433329 675.348396 336.382206 675.348396 469.056029 C 675.343919 601.734328 567.407009 709.678728 434.727935 709.678728 L 434.727935 709.678728 Z M 434.727935 709.678728" dclass="DKDrawableShape" fill-opacity="0.000000" fill="#000000"></path>
        <path ID="e12_44A203F7-EDBA-4C51-9A60-DBDC02AA1825" d=" M 591.882170 311.897408 C 678.676057 398.693717 678.676057 539.418340 591.882170 626.214650 C 505.088283 713.010959 364.367588 713.010959 277.573701 626.214650 C 190.779814 539.418340 190.779814 398.693717 277.573701 311.897408 C 364.367588 225.101098 505.088283 225.101098 591.882170 311.897408" dclass="DKDrawableShape" stroke="#998A95" stroke-opacity="1.000000" stroke-width="3.000000" fill="#000000" stroke-linecap="butt" fill-opacity="0.000000" stroke-linejoin="miter"></path>
        <path ID="e12_10FDDDC8-4D94-4FCE-9253-A4E4B35FFCD2" d=" M 591.882170 311.897408 C 678.676057 398.693717 678.676057 539.418340 591.882170 626.214650 C 505.088283 713.010959 364.367588 713.010959 277.573701 626.214650 C 190.779814 539.418340 190.779814 398.693717 277.573701 311.897408 C 364.367588 225.101098 505.088283 225.101098 591.882170 311.897408" dclass="DKDrawableShape" fill="url(#939D59D4-1A0B-4DD1-8F17-720EF6BD7793)"></path>
        <path ID="e12_384851DE-4252-425C-95E1-8A6220C3E163" d=" M 591.882170 311.897408 C 678.676057 398.693717 678.676057 539.418340 591.882170 626.214650 C 505.088283 713.010959 364.367588 713.010959 277.573701 626.214650 C 190.779814 539.418340 190.779814 398.693717 277.573701 311.897408 C 364.367588 225.101098 505.088283 225.101098 591.882170 311.897408" dclass="DKDrawableShape" stroke="#FFFFFF" stroke-opacity="1.000000" stroke-width="1.000000" fill="#000000" stroke-linecap="butt" fill-opacity="0.000000" stroke-linejoin="miter"></path>
        <Hotspots>
            <StickySpot id_sticky_spot="EBF95604-84F2-4AD0-A571-44EAEF2322A7_32768" relative_location="{-0.500000,0.000000}" position_kind="0"></StickySpot>
            <StickySpot id_sticky_spot="EBF95604-84F2-4AD0-A571-44EAEF2322A7_32769" relative_location="{0.500000,0.000000}" position_kind="0"></StickySpot>
            <StickySpot id_sticky_spot="EBF95604-84F2-4AD0-A571-44EAEF2322A7_32770" relative_location="{0.000000,0.500000}" position_kind="0"></StickySpot>
            <StickySpot id_sticky_spot="EBF95604-84F2-4AD0-A571-44EAEF2322A7_32771" relative_location="{0.000000,-0.500000}" position_kind="0"></StickySpot>
            <StickySpot id_sticky_spot="EBF95604-84F2-4AD0-A571-44EAEF2322A7_32773" relative_location="{0.453064,0.211430}" position_kind="2"></StickySpot>
            <StickySpot id_sticky_spot="EBF95604-84F2-4AD0-A571-44EAEF2322A7_32772" relative_location="{0.492065,-0.089010}" position_kind="2"></StickySpot>
        </Hotspots>
        <g>
            <text style="font-family:Helvetica; font-size:72.000000; fill: #000000;" transform="matrix(1.000000,0.000000,-0.000000,1.000000,434.725697,490.556029)" text-anchor="middle">NgZone</text>
        </g>
    </g>
    <g ID="e12_A15F9A47-9CD5-43A2-8CDB-86B35805428F" dclass="DiaElement" element_type="e12">
        <path ID="contour_F1E8A57A-C0A9-4514-A2B8-DE202E34ED49" d=" M 1081.278500 402.945307 C 1053.155264 402.945307 1030.278026 380.136465 1030.278026 352.101307 C 1030.278026 324.067095 1053.155264 301.257307 1081.278500 301.257307 C 1109.399839 301.257307 1132.278026 324.067095 1132.278026 352.101307 C 1132.277077 380.136465 1109.399839 402.945307 1081.278500 402.945307 L 1081.278500 402.945307 Z M 1081.278500 402.945307" dclass="DKDrawableShape" fill-opacity="0.000000" fill="#000000"></path>
        <path ID="e12_0EB589BF-2747-41F7-B6E1-CDDE42D1B84D" d=" M 1114.587352 318.893414 C 1132.983325 337.233626 1132.983325 366.968988 1114.587352 385.309200 C 1096.191382 403.649415 1066.365619 403.649415 1047.969648 385.309200 C 1029.573676 366.968988 1029.573676 337.233626 1047.969648 318.893414 C 1066.365619 300.553200 1096.191382 300.553200 1114.587352 318.893414" dclass="DKDrawableShape" stroke="#998A95" stroke-opacity="1.000000" stroke-width="3.000000" fill="#000000" stroke-linecap="butt" fill-opacity="0.000000" stroke-linejoin="miter"></path>
        <path ID="e12_E79EDD9A-7817-4296-B1C2-80518757FBA4" d=" M 1114.587352 318.893414 C 1132.983325 337.233626 1132.983325 366.968988 1114.587352 385.309200 C 1096.191382 403.649415 1066.365619 403.649415 1047.969648 385.309200 C 1029.573676 366.968988 1029.573676 337.233626 1047.969648 318.893414 C 1066.365619 300.553200 1096.191382 300.553200 1114.587352 318.893414" dclass="DKDrawableShape" fill="url(#0A83B77E-625D-485E-8A61-582FB6023FAF)"></path>
        <path ID="e12_1E0C8DA5-E34B-4BB1-BAEA-6A422546C950" d=" M 1114.587352 318.893414 C 1132.983325 337.233626 1132.983325 366.968988 1114.587352 385.309200 C 1096.191382 403.649415 1066.365619 403.649415 1047.969648 385.309200 C 1029.573676 366.968988 1029.573676 337.233626 1047.969648 318.893414 C 1066.365619 300.553200 1096.191382 300.553200 1114.587352 318.893414" dclass="DKDrawableShape" stroke="#FFFFFF" stroke-opacity="1.000000" stroke-width="1.000000" fill="#000000" stroke-linecap="butt" fill-opacity="0.000000" stroke-linejoin="miter"></path>
        <Hotspots>
            <StickySpot id_sticky_spot="9F690DEF-FC02-437A-8956-E09BAAD77484_32768" relative_location="{-0.500000,0.000000}" position_kind="0"></StickySpot>
            <StickySpot id_sticky_spot="9F690DEF-FC02-437A-8956-E09BAAD77484_32769" relative_location="{0.500000,0.000000}" position_kind="0"></StickySpot>
            <StickySpot id_sticky_spot="9F690DEF-FC02-437A-8956-E09BAAD77484_32770" relative_location="{0.000000,0.500000}" position_kind="0"></StickySpot>
            <StickySpot id_sticky_spot="9F690DEF-FC02-437A-8956-E09BAAD77484_32771" relative_location="{0.000000,-0.500000}" position_kind="0"></StickySpot>
            <StickySpot id_sticky_spot="9F690DEF-FC02-437A-8956-E09BAAD77484_32774" relative_location="{0.285629,0.410183}" position_kind="2"></StickySpot>
            <StickySpot id_sticky_spot="9F690DEF-FC02-437A-8956-E09BAAD77484_32773" relative_location="{0.500000,-0.000000}" position_kind="2"></StickySpot>
            <StickySpot id_sticky_spot="9F690DEF-FC02-437A-8956-E09BAAD77484_32772" relative_location="{-0.492018,0.089274}" position_kind="2"></StickySpot>
        </Hotspots>
        <g></g>
    </g>
    <g ID="e12_0215A7A3-DAF1-40F9-977E-2B899F8D08E5" dclass="DiaElement" element_type="e12">
        <path ID="contour_7569BD14-B87E-46C0-8F9C-A582F4C270A9" d=" M 1634.726171 402.945307 C 1606.602935 402.945307 1583.725697 380.136465 1583.725697 352.101307 C 1583.725697 324.067095 1606.602935 301.257307 1634.726171 301.257307 C 1662.847510 301.257307 1685.725697 324.067095 1685.725697 352.101307 C 1685.724748 380.136465 1662.847510 402.945307 1634.726171 402.945307 L 1634.726171 402.945307 Z M 1634.726171 402.945307" dclass="DKDrawableShape" fill-opacity="0.000000" fill="#000000"></path>
        <path ID="e12_11BA9EA6-C3D7-48D1-9011-44C806D5EC5C" d=" M 1668.035023 318.893414 C 1686.430996 337.233626 1686.430996 366.968988 1668.035023 385.309200 C 1649.639053 403.649415 1619.813290 403.649415 1601.417320 385.309200 C 1583.021347 366.968988 1583.021347 337.233626 1601.417320 318.893414 C 1619.813290 300.553200 1649.639053 300.553200 1668.035023 318.893414" dclass="DKDrawableShape" stroke="#998A95" stroke-opacity="1.000000" stroke-width="3.000000" fill="#000000" stroke-linecap="butt" fill-opacity="0.000000" stroke-linejoin="miter"></path>
        <path ID="e12_08F4355B-AACD-4E98-B976-C6989BC43CBB" d=" M 1668.035023 318.893414 C 1686.430996 337.233626 1686.430996 366.968988 1668.035023 385.309200 C 1649.639053 403.649415 1619.813290 403.649415 1601.417320 385.309200 C 1583.021347 366.968988 1583.021347 337.233626 1601.417320 318.893414 C 1619.813290 300.553200 1649.639053 300.553200 1668.035023 318.893414" dclass="DKDrawableShape" fill="url(#64F33BAF-67A6-4EF0-B762-4323795F191C)"></path>
        <path ID="e12_AF44B0FC-FCD0-4BFF-9C7F-90DFAB9DA605" d=" M 1668.035023 318.893414 C 1686.430996 337.233626 1686.430996 366.968988 1668.035023 385.309200 C 1649.639053 403.649415 1619.813290 403.649415 1601.417320 385.309200 C 1583.021347 366.968988 1583.021347 337.233626 1601.417320 318.893414 C 1619.813290 300.553200 1649.639053 300.553200 1668.035023 318.893414" dclass="DKDrawableShape" stroke="#FFFFFF" stroke-opacity="1.000000" stroke-width="1.000000" fill="#000000" stroke-linecap="butt" fill-opacity="0.000000" stroke-linejoin="miter"></path>
        <Hotspots>
            <StickySpot id_sticky_spot="8B6EB10F-DA14-451A-90AA-41D37716D343_32768" relative_location="{-0.500000,0.000000}" position_kind="0"></StickySpot>
            <StickySpot id_sticky_spot="8B6EB10F-DA14-451A-90AA-41D37716D343_32769" relative_location="{0.500000,0.000000}" position_kind="0"></StickySpot>
            <StickySpot id_sticky_spot="8B6EB10F-DA14-451A-90AA-41D37716D343_32770" relative_location="{0.000000,0.500000}" position_kind="0"></StickySpot>
            <StickySpot id_sticky_spot="8B6EB10F-DA14-451A-90AA-41D37716D343_32771" relative_location="{0.000000,-0.500000}" position_kind="0"></StickySpot>
        </Hotspots>
        <g></g>
    </g>
    <g ID="e12_A35B460F-5AF8-48C3-B2C0-F0752D5C3345" dclass="DiaElement" element_type="e12">
        <path ID="contour_2BC96F92-3C1D-4DFB-A629-30C1BF561AF2" d=" M 1274.726171 679.900029 C 1246.602935 679.900029 1223.725697 657.091186 1223.725697 629.056029 C 1223.725697 601.021817 1246.602935 578.212029 1274.726171 578.212029 C 1302.847510 578.212029 1325.725697 601.021817 1325.725697 629.056029 C 1325.724748 657.091186 1302.847510 679.900029 1274.726171 679.900029 L 1274.726171 679.900029 Z M 1274.726171 679.900029" dclass="DKDrawableShape" fill-opacity="0.000000" fill="#000000"></path>
        <path ID="e12_93008D5B-0E40-45FF-8120-0D25E34BCF26" d=" M 1308.035023 595.848136 C 1326.430996 614.188348 1326.430996 643.923709 1308.035023 662.263921 C 1289.639053 680.604136 1259.813290 680.604136 1241.417320 662.263921 C 1223.021347 643.923709 1223.021347 614.188348 1241.417320 595.848136 C 1259.813290 577.507921 1289.639053 577.507921 1308.035023 595.848136" dclass="DKDrawableShape" stroke="#998A95" stroke-opacity="1.000000" stroke-width="3.000000" fill="#000000" stroke-linecap="butt" fill-opacity="0.000000" stroke-linejoin="miter"></path>
        <path ID="e12_65302370-CE21-4228-9A5C-46BE2000A53E" d=" M 1308.035023 595.848136 C 1326.430996 614.188348 1326.430996 643.923709 1308.035023 662.263921 C 1289.639053 680.604136 1259.813290 680.604136 1241.417320 662.263921 C 1223.021347 643.923709 1223.021347 614.188348 1241.417320 595.848136 C 1259.813290 577.507921 1289.639053 577.507921 1308.035023 595.848136" dclass="DKDrawableShape" fill="url(#C8D53B17-5B3A-4F1E-BBCD-90604B0CB22A)"></path>
        <path ID="e12_9ED4B5C3-CCFE-4ECD-9928-79485490994C" d=" M 1308.035023 595.848136 C 1326.430996 614.188348 1326.430996 643.923709 1308.035023 662.263921 C 1289.639053 680.604136 1259.813290 680.604136 1241.417320 662.263921 C 1223.021347 643.923709 1223.021347 614.188348 1241.417320 595.848136 C 1259.813290 577.507921 1289.639053 577.507921 1308.035023 595.848136" dclass="DKDrawableShape" stroke="#FFFFFF" stroke-opacity="1.000000" stroke-width="1.000000" fill="#000000" stroke-linecap="butt" fill-opacity="0.000000" stroke-linejoin="miter"></path>
        <Hotspots>
            <StickySpot id_sticky_spot="9C2B1397-4763-4BE3-9C40-7DF30499E538_32768" relative_location="{-0.500000,0.000000}" position_kind="0"></StickySpot>
            <StickySpot id_sticky_spot="9C2B1397-4763-4BE3-9C40-7DF30499E538_32769" relative_location="{0.500000,0.000000}" position_kind="0"></StickySpot>
            <StickySpot id_sticky_spot="9C2B1397-4763-4BE3-9C40-7DF30499E538_32770" relative_location="{0.000000,0.500000}" position_kind="0"></StickySpot>
            <StickySpot id_sticky_spot="9C2B1397-4763-4BE3-9C40-7DF30499E538_32771" relative_location="{0.000000,-0.500000}" position_kind="0"></StickySpot>
            <StickySpot id_sticky_spot="9C2B1397-4763-4BE3-9C40-7DF30499E538_32772" relative_location="{-0.285629,-0.410183}" position_kind="2"></StickySpot>
        </Hotspots>
        <g></g>
    </g>
    <g ID="e12_97049080-DDD9-4FB0-9F85-A0954A78300C" dclass="DiaElement" element_type="e12">
        <path ID="contour_6251A473-077B-47A2-9046-6D0253ED11B4" d=" M 1034.726171 799.900029 C 1006.602935 799.900029 983.725697 777.091186 983.725697 749.056029 C 983.725697 721.021817 1006.602935 698.212029 1034.726171 698.212029 C 1062.847510 698.212029 1085.725697 721.021817 1085.725697 749.056029 C 1085.724748 777.091186 1062.847510 799.900029 1034.726171 799.900029 L 1034.726171 799.900029 Z M 1034.726171 799.900029" dclass="DKDrawableShape" fill-opacity="0.000000" fill="#000000"></path>
        <path ID="e12_8D2BAEBE-275B-4B08-A246-E15E5D7271D5" d=" M 1068.035023 715.848136 C 1086.430996 734.188348 1086.430996 763.923709 1068.035023 782.263921 C 1049.639053 800.604136 1019.813290 800.604136 1001.417320 782.263921 C 983.021347 763.923709 983.021347 734.188348 1001.417320 715.848136 C 1019.813290 697.507921 1049.639053 697.507921 1068.035023 715.848136" dclass="DKDrawableShape" stroke="#998A95" stroke-opacity="1.000000" stroke-width="3.000000" fill="#000000" stroke-linecap="butt" fill-opacity="0.000000" stroke-linejoin="miter"></path>
        <path ID="e12_DB9F29A1-F64C-4316-9E93-82904372DA3E" d=" M 1068.035023 715.848136 C 1086.430996 734.188348 1086.430996 763.923709 1068.035023 782.263921 C 1049.639053 800.604136 1019.813290 800.604136 1001.417320 782.263921 C 983.021347 763.923709 983.021347 734.188348 1001.417320 715.848136 C 1019.813290 697.507921 1049.639053 697.507921 1068.035023 715.848136" dclass="DKDrawableShape" fill="url(#E657F48B-58BC-431E-B354-7EA14CA4DBD1)"></path>
        <path ID="e12_3F7F2518-33D0-469E-A5BF-C564B2A02595" d=" M 1068.035023 715.848136 C 1086.430996 734.188348 1086.430996 763.923709 1068.035023 782.263921 C 1049.639053 800.604136 1019.813290 800.604136 1001.417320 782.263921 C 983.021347 763.923709 983.021347 734.188348 1001.417320 715.848136 C 1019.813290 697.507921 1049.639053 697.507921 1068.035023 715.848136" dclass="DKDrawableShape" stroke="#FFFFFF" stroke-opacity="1.000000" stroke-width="1.000000" fill="#000000" stroke-linecap="butt" fill-opacity="0.000000" stroke-linejoin="miter"></path>
        <Hotspots>
            <StickySpot id_sticky_spot="85852466-8E0F-42ED-A36E-96A490FD64B1_32768" relative_location="{-0.500000,0.000000}" position_kind="0"></StickySpot>
            <StickySpot id_sticky_spot="85852466-8E0F-42ED-A36E-96A490FD64B1_32769" relative_location="{0.500000,0.000000}" position_kind="0"></StickySpot>
            <StickySpot id_sticky_spot="85852466-8E0F-42ED-A36E-96A490FD64B1_32770" relative_location="{0.000000,0.500000}" position_kind="0"></StickySpot>
            <StickySpot id_sticky_spot="85852466-8E0F-42ED-A36E-96A490FD64B1_32771" relative_location="{0.000000,-0.500000}" position_kind="0"></StickySpot>
            <StickySpot id_sticky_spot="85852466-8E0F-42ED-A36E-96A490FD64B1_32772" relative_location="{-0.452817,-0.211963}" position_kind="2"></StickySpot>
        </Hotspots>
        <g></g>
    </g>
    <g dclass="DiaConnector">
        <g enabled="1" ID="3C42A679-7ED1-4606-B76B-29A89DA117BB" dclass="DiaConnectorStyle">
            <path d=" M 671.529803 426.220581 L 1031.092178 361.179415" dclass="DiaConnectorStylizedPath" fill="none" stroke="#998A95" stroke-opacity="1.000000" stroke-width="2.000000" stroke-linecap="round" stroke-linejoin="round"></path>
            <g dclass="DiaConnectorArrow">
                <path ID="tempBoundsRect_1__15FDD2C2-5C71-4681-8E80-BE907EBE754B" d=" M 1001.481634 377.259811 L 997.724608 356.490118 L 1029.213578 350.794085 L 1032.970603 371.563777 Z M 1001.481634 377.259811" dclass="DKDrawableShape" fill-opacity="0.000000" fill="#000000"></path>
                <path d=" M 1008.136106 373.646615 L 1001.481634 377.259811 C 1001.481634 377.259811 1004.449964 371.468218 1003.453601 365.960093 C 1002.457237 360.451969 997.724608 356.490118 997.724608 356.490118 L 1031.092178 361.179417 L 1008.136106 373.646615 Z M 1008.136106 373.646615" dclass="DKDrawableShape" stroke="#998A95" stroke-opacity="1.000000" stroke-width="3.000000" fill="#000000" stroke-linecap="butt" fill-opacity="0.000000" stroke-linejoin="miter"></path>
                <path d=" M 1001.481634 377.259811 C 1001.481634 377.259811 1004.449964 371.468218 1003.453601 365.960093 C 1002.457237 360.451969 997.724608 356.490118 997.724608 356.490118 L 1031.092178 361.179417 L 1001.481634 377.259811 Z M 1001.481634 377.259811" dclass="DKDrawableShape" fill="url(#19AC1E09-5084-4195-B776-6035C6B653F7)"></path>
                <path d=" M 1008.512730 373.441951 L 1001.481809 377.260783 C 1001.481809 377.260783 1004.450140 371.469190 1003.453777 365.961066 C 1002.457413 360.452941 997.724784 356.491090 997.724784 356.491090 L 1031.092354 361.180389 L 1008.512730 373.441951 Z M 1008.512730 373.441951" dclass="DKDrawableShape" stroke="#FFFFFF" stroke-opacity="1.000000" stroke-width="1.000000" fill="#000000" stroke-linecap="butt" fill-opacity="0.000000" stroke-linejoin="miter"></path>
            </g>
        </g>
        <ConnectorEndPoint id_target_sticky_spot="EBF95604-84F2-4AD0-A571-44EAEF2322A7_32772" is_start="1" location="{671.52980330402011, 426.22058114403706}"></ConnectorEndPoint>
        <ConnectorEndPoint id_target_sticky_spot="9F690DEF-FC02-437A-8956-E09BAAD77484_32772" is_start="0" location="{1031.0921784614434, 361.17941497734978}"></ConnectorEndPoint>
        <text style="font-family:Helvetica; font-size:14.000000; fill: #000000;">
            <textPath xlink:href="#A0F9D448-2435-41C5-9C66-FBD1E4A0A29F" baseline-shift="0.000000" startOffset="0.000000%"></textPath>
        </text>
    </g>
    <g dclass="DiaConnector">
        <g enabled="1" ID="0C7E77D3-ABF9-4DDD-8EEA-4C21A52449EE" dclass="DiaConnectorStyle">
            <path d=" M 652.760445 570.805578 L 988.538383 727.501949" dclass="DiaConnectorStylizedPath" fill="none" stroke="#998A95" stroke-opacity="1.000000" stroke-width="2.000000" stroke-linecap="round" stroke-linejoin="round"></path>
            <g dclass="DiaConnectorArrow">
                <path ID="tempBoundsRect_1__E3E02FD9-3D2E-45E2-9A64-AD265FCFEFF8" d=" M 955.077860 723.532460 L 964.003603 704.405869 L 993.001463 717.938205 L 984.075720 737.064796 Z M 955.077860 723.532460" dclass="DKDrawableShape" fill-opacity="0.000000" fill="#000000"></path>
                <path d=" M 962.597203 724.425028 L 955.077860 723.532460 C 955.077860 723.532460 960.845578 720.518001 963.212685 715.445627 C 965.579793 710.373253 964.003603 704.405869 964.003603 704.405869 L 988.538383 727.501948 L 962.597203 724.425028 Z M 962.597203 724.425028" dclass="DKDrawableShape" stroke="#998A95" stroke-opacity="1.000000" stroke-width="3.000000" fill="#000000" stroke-linecap="butt" fill-opacity="0.000000" stroke-linejoin="miter"></path>
                <path d=" M 955.077860 723.532460 C 955.077860 723.532460 960.845578 720.518001 963.212685 715.445627 C 965.579793 710.373253 964.003603 704.405869 964.003603 704.405869 L 988.538383 727.501948 L 955.077860 723.532460 Z M 955.077860 723.532460" dclass="DKDrawableShape" fill="url(#3FBDF108-94E6-4265-B9EF-56BFCD47B3B8)"></path>
                <path d=" M 963.022872 724.475408 L 955.077442 723.533356 C 955.077442 723.533356 960.845160 720.518896 963.212268 715.446522 C 965.579376 710.374148 964.003185 704.406765 964.003185 704.406765 L 988.537965 727.502843 L 963.022872 724.475408 Z M 963.022872 724.475408" dclass="DKDrawableShape" stroke="#FFFFFF" stroke-opacity="1.000000" stroke-width="1.000000" fill="#000000" stroke-linecap="butt" fill-opacity="0.000000" stroke-linejoin="miter"></path>
            </g>
        </g>
        <ConnectorEndPoint id_target_sticky_spot="EBF95604-84F2-4AD0-A571-44EAEF2322A7_32773" is_start="1" location="{652.76044457634941, 570.80557762644594}"></ConnectorEndPoint>
        <ConnectorEndPoint id_target_sticky_spot="85852466-8E0F-42ED-A36E-96A490FD64B1_32772" is_start="0" location="{988.53838276434101, 727.50194878084199}"></ConnectorEndPoint>
        <text style="font-family:Helvetica; font-size:14.000000; fill: #000000;">
            <textPath xlink:href="#2A6D010B-B9BD-4AAA-A744-37869A32FA4B" baseline-shift="0.000000" startOffset="0.000000%"></textPath>
        </text>
    </g>
    <g dclass="DiaConnector">
        <g enabled="1" ID="CA960A90-4E96-4D78-9AA5-0FB77C1AA92D" dclass="DiaConnectorStyle">
            <path d=" M 1132.278026 352.101307 L 1583.725697 352.101307" dclass="DiaConnectorStylizedPath" fill="none" stroke="#998A95" stroke-opacity="1.000000" stroke-width="2.000000" stroke-linecap="round" stroke-linejoin="round"></path>
            <g dclass="DiaConnectorArrow">
                <path ID="tempBoundsRect_1__6E9233FC-12C3-4645-88EE-5EA01106506D" d=" M 1551.725697 362.654195 L 1551.725697 341.547433 L 1583.725697 341.547433 L 1583.725697 362.654195 Z M 1551.725697 362.654195" dclass="DKDrawableShape" fill-opacity="0.000000" fill="#000000"></path>
                <path d=" M 1558.917052 360.283203 L 1551.725697 362.654195 C 1551.725697 362.654195 1555.677534 357.483458 1555.677534 351.885943 C 1555.677534 346.288428 1551.725697 341.547433 1551.725697 341.547433 L 1583.725697 352.101308 L 1558.917052 360.283203 Z M 1558.917052 360.283203" dclass="DKDrawableShape" stroke="#998A95" stroke-opacity="1.000000" stroke-width="3.000000" fill="#000000" stroke-linecap="butt" fill-opacity="0.000000" stroke-linejoin="miter"></path>
                <path d=" M 1551.725697 362.654195 C 1551.725697 362.654195 1555.677534 357.483458 1555.677534 351.885943 C 1555.677534 346.288428 1551.725697 341.547433 1551.725697 341.547433 L 1583.725697 352.101308 L 1551.725697 362.654195 Z M 1551.725697 362.654195" dclass="DKDrawableShape" fill="url(#575C0F41-4B52-4002-B598-7BE722564257)"></path>
                <path d=" M 1559.324091 360.148847 L 1551.725697 362.655182 C 1551.725697 362.655182 1555.677534 357.484446 1555.677534 351.886931 C 1555.677534 346.289416 1551.725697 341.548421 1551.725697 341.548421 L 1583.725697 352.102296 L 1559.324091 360.148847 Z M 1559.324091 360.148847" dclass="DKDrawableShape" stroke="#FFFFFF" stroke-opacity="1.000000" stroke-width="1.000000" fill="#000000" stroke-linecap="butt" fill-opacity="0.000000" stroke-linejoin="miter"></path>
            </g>
        </g>
        <ConnectorEndPoint id_target_sticky_spot="9F690DEF-FC02-437A-8956-E09BAAD77484_32773" is_start="1" location="{1132.2780257266957, 352.10130709753173}"></ConnectorEndPoint>
        <ConnectorEndPoint id_target_sticky_spot="8B6EB10F-DA14-451A-90AA-41D37716D343_32768" is_start="0" location="{1583.7256967519795, 352.10130709753179}"></ConnectorEndPoint>
        <text style="font-family:Helvetica; font-size:14.000000; fill: #000000;">
            <textPath xlink:href="#B32DE096-2CEE-4F6D-8DE1-450F4FE54227" baseline-shift="0.000000" startOffset="0.000000%"></textPath>
        </text>
    </g>
    <g dclass="DiaConnector">
        <g enabled="1" ID="2C543F9E-4CFE-486C-ABD3-8B42E75B8B32" dclass="DiaConnectorStyle">
            <path d=" M 1110.412152 393.811987 L 1245.591544 587.345311" dclass="DiaConnectorStylizedPath" fill="none" stroke="#998A95" stroke-opacity="1.000000" stroke-width="2.000000" stroke-linecap="round" stroke-linejoin="round"></path>
            <g dclass="DiaConnectorArrow">
                <path ID="tempBoundsRect_1__4C5B892F-4A5C-45C7-801C-19425B0C7AF4" d=" M 1218.616070 567.154046 L 1235.919740 555.067757 L 1254.243785 581.301883 L 1236.940115 593.388172 Z M 1218.616070 567.154046" dclass="DKDrawableShape" fill-opacity="0.000000" fill="#000000"></path>
                <path d=" M 1224.677807 571.691945 L 1218.616070 567.154046 C 1218.616070 567.154046 1225.118051 567.432927 1229.706986 564.227642 C 1234.295921 561.022357 1235.919740 555.067757 1235.919740 555.067757 L 1245.591545 587.345310 L 1224.677807 571.691945 Z M 1224.677807 571.691945" dclass="DKDrawableShape" stroke="#998A95" stroke-opacity="1.000000" stroke-width="3.000000" fill="#000000" stroke-linecap="butt" fill-opacity="0.000000" stroke-linejoin="miter"></path>
                <path d=" M 1218.616070 567.154046 C 1218.616070 567.154046 1225.118051 567.432927 1229.706986 564.227642 C 1234.295921 561.022357 1235.919740 555.067757 1235.919740 555.067757 L 1245.591545 587.345310 L 1218.616070 567.154046 Z M 1218.616070 567.154046" dclass="DKDrawableShape" fill="url(#175A781A-0356-4626-AE63-4489E5ADD834)"></path>
                <path d=" M 1225.021036 571.948707 L 1218.615260 567.154612 C 1218.615260 567.154612 1225.117241 567.433492 1229.706176 564.228207 C 1234.295111 561.022922 1235.918930 555.068323 1235.918930 555.068323 L 1245.590735 587.345876 L 1225.021036 571.948707 Z M 1225.021036 571.948707" dclass="DKDrawableShape" stroke="#FFFFFF" stroke-opacity="1.000000" stroke-width="1.000000" fill="#000000" stroke-linecap="butt" fill-opacity="0.000000" stroke-linejoin="miter"></path>
            </g>
        </g>
        <ConnectorEndPoint id_target_sticky_spot="9F690DEF-FC02-437A-8956-E09BAAD77484_32774" is_start="1" location="{1110.4121519224839, 393.81198660685908}"></ConnectorEndPoint>
        <ConnectorEndPoint id_target_sticky_spot="9C2B1397-4763-4BE3-9C40-7DF30499E538_32772" is_start="0" location="{1245.5915438709599, 587.3453109275971}"></ConnectorEndPoint>
        <text style="font-family:Helvetica; font-size:14.000000; fill: #000000;">
            <textPath xlink:href="#63A3E3C4-1B3E-47F1-9AA0-C686C80913DA" baseline-shift="0.000000" startOffset="0.000000%"></textPath>
        </text>
    </g>
</svg>