<?xml version="1.0" encoding="UTF-8"?>
<!DOCTYPE svg PUBLIC "-//W3C//DTD SVG 1.1//EN" "http://www.w3.org/Graphics/SVG/1.1/DTD/svg11.dtd">

<svg x="0px" height="1080.000000px" xmlns:xlink="http://www.w3.org/1999/xlink" y="0px" xmlns="http://www.w3.org/2000/svg" width="1920.000000px" version="1.1" viewBox="0 0 1920.000000 1080.000000">
    <defs>
        <linearGradient x2="434.726593" id="939D59D4-1A0B-4DD1-8F17-720EF6BD7793" x1="434.726593" gradientUnits="userSpaceOnUse" y2="229.762222" y1="685.663330">
            <stop offset="0.00%" stop-color="#637E4E" stop-opacity="1.000000"></stop>
            <stop offset="100.00%" stop-color="#CEDCC2" stop-opacity="1.000000"></stop>
        </linearGradient>
    </defs>
    <g ID="e12_DBC23D92-BEE5-4957-A33F-96B4464D038E" dclass="DiaElement" element_type="e12">
        <path ID="contour_3030EE14-C724-4BF0-A1F4-F34DBF40F9EB" d=" M 434.727935 709.678728 C 302.039907 709.678728 194.102997 601.734328 194.102997 469.056029 C 194.102997 336.382206 302.039907 228.433329 434.727935 228.433329 C 567.407009 228.433329 675.348396 336.382206 675.348396 469.056029 C 675.343919 601.734328 567.407009 709.678728 434.727935 709.678728 L 434.727935 709.678728 Z M 434.727935 709.678728" dclass="DKDrawableShape" fill-opacity="0.000000" fill="#000000"></path>
        <path ID="e12_64980FD5-2AF8-4032-B946-2F563799E412" d=" M 591.882170 311.897408 C 678.676057 398.693717 678.676057 539.418340 591.882170 626.214650 C 505.088283 713.010959 364.367588 713.010959 277.573701 626.214650 C 190.779814 539.418340 190.779814 398.693717 277.573701 311.897408 C 364.367588 225.101098 505.088283 225.101098 591.882170 311.897408" dclass="DKDrawableShape" stroke="#998A95" stroke-opacity="1.000000" stroke-width="3.000000" fill="#000000" stroke-linecap="butt" fill-opacity="0.000000" stroke-linejoin="miter"></path>
        <path ID="e12_605C228D-817A-4020-A7BB-F68C4DB7D548" d=" M 591.882170 311.897408 C 678.676057 398.693717 678.676057 539.418340 591.882170 626.214650 C 505.088283 713.010959 364.367588 713.010959 277.573701 626.214650 C 190.779814 539.418340 190.779814 398.693717 277.573701 311.897408 C 364.367588 225.101098 505.088283 225.101098 591.882170 311.897408" dclass="DKDrawableShape" fill="url(#939D59D4-1A0B-4DD1-8F17-720EF6BD7793)"></path>
        <path ID="e12_541D3E2D-6D24-47C4-AEBB-330D312D17B6" d=" M 591.882170 311.897408 C 678.676057 398.693717 678.676057 539.418340 591.882170 626.214650 C 505.088283 713.010959 364.367588 713.010959 277.573701 626.214650 C 190.779814 539.418340 190.779814 398.693717 277.573701 311.897408 C 364.367588 225.101098 505.088283 225.101098 591.882170 311.897408" dclass="DKDrawableShape" stroke="#FFFFFF" stroke-opacity="1.000000" stroke-width="1.000000" fill="#000000" stroke-linecap="butt" fill-opacity="0.000000" stroke-linejoin="miter"></path>
        <Hotspots>
            <StickySpot id_sticky_spot="EBF95604-84F2-4AD0-A571-44EAEF2322A7_32768" relative_location="{-0.500000,0.000000}" position_kind="0"></StickySpot>
            <StickySpot id_sticky_spot="EBF95604-84F2-4AD0-A571-44EAEF2322A7_32769" relative_location="{0.500000,0.000000}" position_kind="0"></StickySpot>
            <StickySpot id_sticky_spot="EBF95604-84F2-4AD0-A571-44EAEF2322A7_32770" relative_location="{0.000000,0.500000}" position_kind="0"></StickySpot>
            <StickySpot id_sticky_spot="EBF95604-84F2-4AD0-A571-44EAEF2322A7_32771" relative_location="{0.000000,-0.500000}" position_kind="0"></StickySpot>
        </Hotspots>
        <g>
            <text style="font-family:Helvetica; font-size:72.000000; fill: #000000;" transform="matrix(1.000000,0.000000,-0.000000,1.000000,434.725697,490.556029)" text-anchor="middle">NgZone</text>
        </g>
    </g>
</svg>